<?xml version="1.0" encoding="UTF-8" standalone="no"?>
<!-- Created with Inkscape (http://www.inkscape.org/) -->

<svg
   version="1.1"
   id="svg1"
   width="512"
   height="512"
   viewBox="0 0 512 512"
   sodipodi:docname="01.svg"
   inkscape:version="1.2.2 (b0a8486541, 2022-12-01)"
   xml:space="preserve"
   xmlns:inkscape="http://www.inkscape.org/namespaces/inkscape"
   xmlns:sodipodi="http://sodipodi.sourceforge.net/DTD/sodipodi-0.dtd"
   xmlns="http://www.w3.org/2000/svg"
   xmlns:svg="http://www.w3.org/2000/svg"><defs
     id="defs1" /><sodipodi:namedview
     id="namedview1"
     pagecolor="#ffffff"
     bordercolor="#000000"
     borderopacity="0.25"
     inkscape:showpageshadow="2"
     inkscape:pageopacity="0.0"
     inkscape:pagecheckerboard="0"
     inkscape:deskcolor="#d1d1d1"
     showgrid="false"
     inkscape:zoom="0.49566798"
     inkscape:cx="-37.323371"
     inkscape:cy="395.42599"
     inkscape:window-width="1440"
     inkscape:window-height="710"
     inkscape:window-x="0"
     inkscape:window-y="0"
     inkscape:window-maximized="0"
     inkscape:current-layer="g1" /><g
     inkscape:groupmode="layer"
     inkscape:label="Image"
     id="g1"><g
       id="g24"
       transform="translate(7.0624315,5.6338925)"><circle
         style="fill:#fbb03b;fill-opacity:1;stroke:none;stroke-width:8.03939"
         id="path1"
         cx="249.65036"
         cy="249.65034"
         r="135.16783" /><path
         style="fill:#fbb03b;fill-opacity:1;stroke:none;stroke-width:7"
         d="M 286.74126,97.720282 H 211.13287 L 251.79021,16.405595 Z"
         id="path3"
         sodipodi:nodetypes="cccc"
         inkscape:transform-center-y="-193.30071" /><path
         style="fill:#fbb03b;fill-opacity:1;stroke:none;stroke-width:7"
         d="M 170.59242,114.01384 116.01329,166.33732 89.090019,79.50279 Z"
         id="path6"
         sodipodi:nodetypes="cccc"
         inkscape:transform-center-y="-127.44359"
         inkscape:transform-center-x="119.09585" /><path
         style="fill:#fbb03b;fill-opacity:1;stroke:none;stroke-width:7"
         d="m 95.951795,213.96778 0.696783,75.60517 -81.685921,-39.90624 z"
         id="path7"
         sodipodi:nodetypes="cccc"
         inkscape:transform-center-y="1.40672"
         inkscape:transform-center-x="193.13145" /><path
         style="fill:#fbb03b;fill-opacity:1;stroke:none;stroke-width:7"
         d="m 402.05011,286.2182 -0.96417,-75.60223 81.82654,39.61709 z"
         id="path9"
         sodipodi:nodetypes="cccc"
         inkscape:transform-center-y="-1.946555"
         inkscape:transform-center-x="-193.06214" /><path
         style="fill:#fbb03b;fill-opacity:1;stroke:none;stroke-width:7"
         d="m 383.53935,169.05325 -53.5056,-53.42077 86.2244,-28.8175 z"
         id="path10"
         sodipodi:nodetypes="cccc"
         inkscape:transform-center-y="-122.42953"
         inkscape:transform-center-x="-124.20888" /><path
         style="fill:#fbb03b;fill-opacity:1;stroke:none;stroke-width:7"
         d="m 211.41888,403.07755 75.60825,-0.14162 -40.50495,81.39069 z"
         id="path2"
         sodipodi:nodetypes="cccc"
         inkscape:transform-center-y="193.26764"
         inkscape:transform-center-x="-0.28594" /><path
         style="fill:#fbb03b;fill-opacity:1;stroke:none;stroke-width:7"
         d="m 116.11641,334.55287 54.64323,52.25653 -85.584046,30.66704 z"
         id="path4"
         sodipodi:nodetypes="cccc"
         inkscape:transform-center-y="125.65102"
         inkscape:transform-center-x="120.96945" /><path
         d="m 378.03793,299.94267 c -17.92593,0 -32.70931,13.45433 -34.86537,30.80088 -1.63219,-0.14142 -3.35456,-0.22987 -5.22511,-0.22987 -13.12031,0 -23.78277,10.66152 -23.78277,23.78183 0,1.75981 0.0915,3.36794 0.21861,4.91548 -0.71053,-0.0731 -1.38012,-0.2111 -2.13452,-0.2111 -10.06694,0 -18.25365,8.18672 -18.25365,18.25366 0,10.06694 8.18671,18.25363 18.25365,18.25363 2.54738,0 4.79602,-0.49821 6.82953,-1.26663 2.48715,6.91802 9.04871,11.90642 16.81344,11.90642 6.63852,0 12.37841,-3.66707 15.47738,-9.04193 0.46783,0.38752 0.91901,0.78585 1.47492,1.12121 3.24437,1.95728 7.92526,3.04462 14.40027,3.04462 9.06176,0 16.62764,-6.26795 18.74623,-14.67986 4.65643,3.63042 10.76871,5.89878 18.26022,5.89878 16.44308,0 29.79882,-13.35575 29.79882,-29.79883 0,-13.34032 -8.79172,-24.64667 -20.89014,-28.43929 -0.45941,-19.0082 -16.00369,-34.309 -35.12151,-34.309 z"
         style="baseline-shift:baseline;display:inline;overflow:visible;fill:#b3b3b3;fill-opacity:1;stroke:#ffffff;stroke-width:3.84307;stroke-dasharray:none;enable-background:accumulate;stop-color:#000000"
         id="path24"
         sodipodi:nodetypes="scsscssscscsscsscs" /></g></g></svg>
