<?xml version="1.0" encoding="UTF-8" standalone="no"?>
<!-- Created with Inkscape (http://www.inkscape.org/) -->

<svg
   version="1.1"
   id="svg1"
   width="512"
   height="512"
   viewBox="0 0 512 512"
   sodipodi:docname="03.svg"
   inkscape:version="1.2.2 (b0a8486541, 2022-12-01)"
   xml:space="preserve"
   xmlns:inkscape="http://www.inkscape.org/namespaces/inkscape"
   xmlns:sodipodi="http://sodipodi.sourceforge.net/DTD/sodipodi-0.dtd"
   xmlns="http://www.w3.org/2000/svg"
   xmlns:svg="http://www.w3.org/2000/svg"><defs
     id="defs1" /><sodipodi:namedview
     id="namedview1"
     pagecolor="#ffffff"
     bordercolor="#000000"
     borderopacity="0.25"
     inkscape:showpageshadow="2"
     inkscape:pageopacity="0.0"
     inkscape:pagecheckerboard="0"
     inkscape:deskcolor="#d1d1d1"
     showgrid="false"
     inkscape:zoom="0.49566798"
     inkscape:cx="311.70059"
     inkscape:cy="395.42599"
     inkscape:window-width="1440"
     inkscape:window-height="710"
     inkscape:window-x="0"
     inkscape:window-y="0"
     inkscape:window-maximized="0"
     inkscape:current-layer="g1" /><g
     inkscape:groupmode="layer"
     inkscape:label="Image"
     id="g1"><g
       id="g124"
       transform="translate(11.377273,-4.5035775)"><circle
         style="fill:#fbb03b;fill-opacity:1;stroke:none;stroke-width:8.03939"
         id="path1"
         cx="249.65036"
         cy="249.65034"
         r="135.16783" /><path
         style="fill:#fbb03b;fill-opacity:1;stroke:none;stroke-width:7"
         d="M 286.74126,97.720282 H 211.13287 L 251.79021,16.405595 Z"
         id="path3"
         sodipodi:nodetypes="cccc"
         inkscape:transform-center-y="-193.30071" /><path
         style="fill:#fbb03b;fill-opacity:1;stroke:none;stroke-width:7"
         d="M 170.59242,114.01384 116.01329,166.33732 89.090019,79.50279 Z"
         id="path6"
         sodipodi:nodetypes="cccc"
         inkscape:transform-center-y="-127.44359"
         inkscape:transform-center-x="119.09585" /><path
         style="fill:#fbb03b;fill-opacity:1;stroke:none;stroke-width:7"
         d="m 402.05011,286.2182 -0.96417,-75.60223 81.82654,39.61709 z"
         id="path9"
         sodipodi:nodetypes="cccc"
         inkscape:transform-center-y="-1.946555"
         inkscape:transform-center-x="-193.06214" /><path
         style="fill:#fbb03b;fill-opacity:1;stroke:none;stroke-width:7"
         d="m 383.53935,169.05325 -53.5056,-53.42077 86.2244,-28.8175 z"
         id="path10"
         sodipodi:nodetypes="cccc"
         inkscape:transform-center-y="-122.42953"
         inkscape:transform-center-x="-124.20888" /><path
         d="m 116.82334,195.21307 c 34.18841,0 62.38333,25.66014 66.49536,58.74354 3.11293,-0.26972 6.39783,-0.4384 9.96536,-0.4384 25.02309,0 45.35858,20.3337 45.35858,45.35679 0,3.35631 -0.17454,6.42334 -0.41693,9.37482 1.35511,-0.13939 2.63217,-0.40262 4.07097,-0.40262 19.19969,0 34.81341,15.61374 34.81341,34.81344 0,19.19972 -15.61372,34.81341 -34.81341,34.81341 -4.85839,0 -9.14699,-0.95019 -13.0253,-2.41573 -4.74352,13.19407 -17.25775,22.70796 -32.06667,22.70796 -12.66101,0 -23.60814,-6.99384 -29.5185,-17.2448 -0.89225,0.73909 -1.75274,1.49878 -2.81298,2.13838 -6.18768,3.73293 -15.11509,5.80671 -27.46425,5.80671 -17.28263,0 -31.71228,-11.95425 -35.75287,-27.99747 -8.880757,6.92394 -20.538124,11.25016 -34.825953,11.25016 -31.360298,0 -56.8324277,-25.47212 -56.8324277,-56.83242 0,-25.44272 16.7676127,-47.00623 39.8417547,-54.23953 0.876183,-36.2525 30.522304,-65.43424 66.983856,-65.43424 z"
         style="baseline-shift:baseline;display:inline;overflow:visible;fill:#999999;fill-opacity:1;stroke:#ffffff;stroke-width:7.32951;stroke-dasharray:none;enable-background:accumulate;stop-color:#000000"
         id="path12"
         sodipodi:nodetypes="scsscssscscsscsscs" /><path
         d="m 344.16134,279.51953 c -37.31583,0 -68.08993,28.00744 -72.57812,64.11719 -3.39769,-0.29439 -6.98308,-0.47852 -10.87695,-0.47852 -27.31211,0 -49.50782,22.19375 -49.50782,49.50586 0,3.66335 0.19052,7.01093 0.45508,10.23242 -1.4791,-0.15221 -2.87297,-0.43945 -4.44336,-0.43945 -20.95603,0 -37.99804,17.04202 -37.99804,37.99805 0,20.95603 17.04201,37.99805 37.99804,37.99804 5.30281,0 9.98371,-1.03718 14.2168,-2.63671 5.17743,14.40102 18.83642,24.78515 35,24.78515 13.8192,0 25.76774,-7.63357 32.21875,-18.82226 0.97387,0.80668 1.91308,1.63584 3.07031,2.33398 6.75372,4.07442 16.49776,6.33789 29.97656,6.33789 18.8636,0 34.61323,-13.04779 39.02344,-30.55859 9.69313,7.55733 22.41687,12.27929 38.01172,12.27929 34.22902,0 62.03125,-27.80223 62.03125,-62.03125 0,-27.77013 -18.30145,-51.30619 -43.48633,-59.20117 -0.95634,-39.56873 -33.31439,-71.41992 -73.11133,-71.41992 z"
         style="baseline-shift:baseline;display:inline;overflow:visible;fill:#b3b3b3;fill-opacity:1;stroke:#ffffff;stroke-width:8;stroke-dasharray:none;enable-background:accumulate;stop-color:#000000;stop-opacity:1"
         id="path24"
         sodipodi:nodetypes="scsscssscscsscsscs" /></g></g></svg>
