<?xml version="1.0" encoding="UTF-8" standalone="no"?>
<!-- Created with Inkscape (http://www.inkscape.org/) -->

<svg
   version="1.1"
   id="svg1"
   width="512"
   height="512"
   viewBox="0 0 512 512"
   sodipodi:docname="04.svg"
   inkscape:version="1.2.2 (b0a8486541, 2022-12-01)"
   xml:space="preserve"
   xmlns:inkscape="http://www.inkscape.org/namespaces/inkscape"
   xmlns:sodipodi="http://sodipodi.sourceforge.net/DTD/sodipodi-0.dtd"
   xmlns="http://www.w3.org/2000/svg"
   xmlns:svg="http://www.w3.org/2000/svg"><defs
     id="defs1"><rect
       x="-280.42965"
       y="280.42965"
       width="135.17113"
       height="127.10121"
       id="rect1" /></defs><sodipodi:namedview
     id="namedview1"
     pagecolor="#ffffff"
     bordercolor="#000000"
     borderopacity="0.25"
     inkscape:showpageshadow="2"
     inkscape:pageopacity="0.0"
     inkscape:pagecheckerboard="0"
     inkscape:deskcolor="#d1d1d1"
     showgrid="false"
     inkscape:zoom="0.35049019"
     inkscape:cx="312.41959"
     inkscape:cy="396.58742"
     inkscape:window-width="1440"
     inkscape:window-height="710"
     inkscape:window-x="0"
     inkscape:window-y="0"
     inkscape:window-maximized="0"
     inkscape:current-layer="g1" /><g
     inkscape:groupmode="layer"
     inkscape:label="Image"
     id="g1"><g
       id="g133"
       transform="translate(7.0624315,-4.5035775)"><circle
         style="fill:#fbb03b;fill-opacity:1;stroke:none;stroke-width:8.03939"
         id="path1"
         cx="249.65036"
         cy="249.65034"
         r="135.16783" /><path
         style="fill:#fbb03b;fill-opacity:1;stroke:none;stroke-width:7"
         d="M 286.74126,97.720282 H 211.13287 L 251.79021,16.405595 Z"
         id="path3"
         sodipodi:nodetypes="cccc"
         inkscape:transform-center-y="-193.30071" /><path
         style="fill:#fbb03b;fill-opacity:1;stroke:none;stroke-width:7"
         d="M 170.59242,114.01384 116.01329,166.33732 89.090019,79.50279 Z"
         id="path6"
         sodipodi:nodetypes="cccc"
         inkscape:transform-center-y="-127.44359"
         inkscape:transform-center-x="119.09585" /><path
         style="fill:#fbb03b;fill-opacity:1;stroke:none;stroke-width:7"
         d="m 95.951795,213.96778 0.696783,75.60517 -81.685921,-39.90624 z"
         id="path7"
         sodipodi:nodetypes="cccc"
         inkscape:transform-center-y="1.40672"
         inkscape:transform-center-x="193.13145" /><path
         style="fill:#fbb03b;fill-opacity:1;stroke:none;stroke-width:7"
         d="m 117.50403,336.70314 55.48637,51.36039 -85.073665,32.05571 z"
         id="path8"
         sodipodi:nodetypes="cccc"
         inkscape:transform-center-y="128.04755"
         inkscape:transform-center-x="118.4835" /><path
         style="fill:#fbb03b;fill-opacity:1;stroke:none;stroke-width:7"
         d="m 402.05011,286.2182 -0.96417,-75.60223 81.82654,39.61709 z"
         id="path9"
         sodipodi:nodetypes="cccc"
         inkscape:transform-center-y="-1.946555"
         inkscape:transform-center-x="-193.06214" /><path
         style="fill:#fbb03b;fill-opacity:1;stroke:none;stroke-width:7"
         d="m 383.53935,169.05325 -53.5056,-53.42077 86.2244,-28.8175 z"
         id="path10"
         sodipodi:nodetypes="cccc"
         inkscape:transform-center-y="-122.42953"
         inkscape:transform-center-x="-124.20888" /><path
         d="m 344.16134,279.51953 c -37.31583,0 -68.08993,28.00744 -72.57812,64.11719 -3.39769,-0.29439 -6.98308,-0.47852 -10.87695,-0.47852 -27.31211,0 -49.50782,22.19375 -49.50782,49.50586 0,3.66335 0.19052,7.01093 0.45508,10.23242 -1.4791,-0.15221 -2.87297,-0.43945 -4.44336,-0.43945 -20.95603,0 -37.99804,17.04202 -37.99804,37.99805 0,20.95603 17.04201,37.99805 37.99804,37.99804 5.30281,0 9.98371,-1.03718 14.2168,-2.63671 5.17743,14.40102 18.83642,24.78515 35,24.78515 13.8192,0 25.76774,-7.63357 32.21875,-18.82226 0.97387,0.80668 1.91308,1.63584 3.07031,2.33398 6.75372,4.07442 16.49776,6.33789 29.97656,6.33789 18.8636,0 34.61323,-13.04779 39.02344,-30.55859 9.69313,7.55733 22.41687,12.27929 38.01172,12.27929 34.22902,0 62.03125,-27.80223 62.03125,-62.03125 0,-27.77013 -18.30145,-51.30619 -43.48633,-59.20117 -0.95634,-39.56873 -33.31439,-71.41992 -73.11133,-71.41992 z"
         style="baseline-shift:baseline;display:inline;overflow:visible;fill:#b3b3b3;fill-opacity:1;stroke:#ffffff;stroke-width:8;stroke-dasharray:none;enable-background:accumulate;stop-color:#000000;stop-opacity:1"
         id="path24"
         sodipodi:nodetypes="scsscssscscsscsscs" /><text
         xml:space="preserve"
         id="text1"
         style="font-style:normal;font-variant:normal;font-weight:300;font-stretch:condensed;font-size:42.6667px;font-family:'Open Sans';-inkscape-font-specification:'Open Sans Light Condensed';text-align:center;writing-mode:lr-tb;direction:ltr;white-space:pre;shape-inside:url(#rect1);opacity:0.99;fill:#d1d1d1;stroke-width:8"
         transform="matrix(8.0574091,0,0,8.0574091,1572.7372,-2095.6391)" /><rect
         style="opacity:0.99;fill:#ffffff;stroke-width:8"
         id="rect2"
         width="31.384617"
         height="99.860138"
         x="304.43356"
         y="344.51749" /><rect
         style="opacity:0.99;fill:#ffffff;stroke-width:8"
         id="rect3"
         width="31.384617"
         height="99.860138"
         x="378.75525"
         y="-370.05594"
         transform="rotate(90)" /></g></g></svg>
