<?xml version="1.0" encoding="UTF-8" standalone="no"?>
<!-- Created with Inkscape (http://www.inkscape.org/) -->

<svg
   version="1.1"
   id="svg1"
   width="512"
   height="512"
   viewBox="0 0 512 512"
   sodipodi:docname="08.svg"
   inkscape:version="1.2.2 (b0a8486541, 2022-12-01)"
   xml:space="preserve"
   xmlns:inkscape="http://www.inkscape.org/namespaces/inkscape"
   xmlns:sodipodi="http://sodipodi.sourceforge.net/DTD/sodipodi-0.dtd"
   xmlns="http://www.w3.org/2000/svg"
   xmlns:svg="http://www.w3.org/2000/svg"><defs
     id="defs1" /><sodipodi:namedview
     id="namedview1"
     pagecolor="#ffffff"
     bordercolor="#000000"
     borderopacity="0.25"
     inkscape:showpageshadow="2"
     inkscape:pageopacity="0.0"
     inkscape:pagecheckerboard="0"
     inkscape:deskcolor="#d1d1d1"
     showgrid="false"
     inkscape:zoom="0.70098038"
     inkscape:cx="223.25875"
     inkscape:cy="298.15385"
     inkscape:window-width="1440"
     inkscape:window-height="710"
     inkscape:window-x="0"
     inkscape:window-y="0"
     inkscape:window-maximized="0"
     inkscape:current-layer="g1" /><g
     inkscape:groupmode="layer"
     inkscape:label="Image"
     id="g1"><g
       id="g54"
       transform="translate(8.0182279,-4.2177665)"><circle
         style="fill:#fbb03b;fill-opacity:1;stroke:none;stroke-width:6.83565"
         id="path1"
         cx="266.41946"
         cy="217.12509"
         r="114.9291" /><path
         style="fill:#fbb03b;fill-opacity:1;stroke:none;stroke-width:5.95188"
         d="m 297.95675,87.943601 h -64.28752 l 34.5697,-69.139396 z"
         id="path3"
         sodipodi:nodetypes="cccc"
         inkscape:transform-center-y="-164.35772"
         inkscape:transform-center-x="-1.9883328e-06" /><path
         style="fill:#fbb03b;fill-opacity:1;stroke:none;stroke-width:5.95188"
         d="m 199.19893,101.79753 -46.407,44.48906 -22.89202,-73.832767 z"
         id="path6"
         sodipodi:nodetypes="cccc"
         inkscape:transform-center-y="-108.36141"
         inkscape:transform-center-x="101.26357" /><path
         style="fill:#fbb03b;fill-opacity:1;stroke:none;stroke-width:5.95188"
         d="m 135.73426,186.78532 0.59244,64.28476 -69.455044,-33.93105 z"
         id="path7"
         sodipodi:nodetypes="cccc"
         inkscape:transform-center-y="1.1960842"
         inkscape:transform-center-x="164.2138" /><path
         style="fill:#fbb03b;fill-opacity:1;stroke:none;stroke-width:5.95188"
         d="m 396.00035,248.21766 -0.81981,-64.28228 69.57462,33.6852 z"
         id="path9"
         sodipodi:nodetypes="cccc"
         inkscape:transform-center-y="-1.6550916"
         inkscape:transform-center-x="-164.15486" /><path
         style="fill:#fbb03b;fill-opacity:1;stroke:none;stroke-width:5.95188"
         d="M 380.26121,148.59587 334.76704,103.1738 408.08101,78.671155 Z"
         id="path10"
         sodipodi:nodetypes="cccc"
         inkscape:transform-center-y="-104.09811"
         inkscape:transform-center-x="-105.61104" /><path
         d="m 133.74889,153.75287 c 31.72852,0 57.8948,23.81388 61.71097,54.5169 2.88895,-0.25031 5.9375,-0.40686 9.24834,-0.40686 23.22266,0 42.095,18.87067 42.095,42.09333 0,3.11483 -0.16199,5.96118 -0.38694,8.7003 1.25762,-0.12936 2.44279,-0.37365 3.77806,-0.37365 17.81827,0 32.30857,14.49032 32.30857,32.30859 0,17.81828 -14.4903,32.30855 -32.30857,32.30855 -4.50882,0 -8.48885,-0.88182 -12.08812,-2.24191 -4.40221,12.24474 -16.01604,21.07411 -29.75944,21.07411 -11.75004,0 -21.90952,-6.49063 -27.39463,-16.00403 -0.82805,0.68591 -1.62663,1.39095 -2.61058,1.98452 -5.74247,3.46435 -14.02755,5.38892 -25.48817,5.38892 -16.03913,0 -29.43057,-11.09414 -33.18043,-25.98304 -8.24178,6.42576 -19.06039,10.44071 -32.320201,10.44071 -29.1039,0 -52.74329,-23.63939 -52.74329,-52.74329 0,-23.61209 15.56117,-43.62409 36.97511,-50.33695 0.81314,-33.6441 28.3262,-60.7262 62.164321,-60.7262 z"
         style="baseline-shift:baseline;display:inline;overflow:visible;fill:#999999;fill-opacity:1;stroke:#ffffff;stroke-width:6.80215;stroke-dasharray:none;enable-background:accumulate;stop-color:#000000;stop-opacity:1"
         id="path12"
         sodipodi:nodetypes="scsscssscscsscsscs" /><path
         d="m 346.7793,242.52197 c -31.72852,0 -57.8948,23.81388 -61.71097,54.5169 -2.88895,-0.25031 -5.9375,-0.40686 -9.24834,-0.40686 -23.22266,0 -42.095,18.87067 -42.095,42.09333 0,3.11483 0.16199,5.96118 0.38694,8.7003 -1.25762,-0.12936 -2.44279,-0.37365 -3.77806,-0.37365 -17.81827,0 -32.30857,14.49032 -32.30857,32.30859 0,17.81828 14.4903,32.30855 32.30857,32.30855 4.50882,0 8.48885,-0.88182 12.08812,-2.24191 4.40221,12.24474 16.01604,21.07411 29.75944,21.07411 11.75004,0 21.90952,-6.49063 27.39463,-16.00403 0.82805,0.68591 1.62663,1.39095 2.61058,1.98452 5.74247,3.46435 14.02755,5.38892 25.48817,5.38892 16.03913,0 29.43057,-11.09414 33.18043,-25.98304 8.24178,6.42576 19.06039,10.44071 32.3202,10.44071 29.1039,0 52.74329,-23.63939 52.74329,-52.74329 0,-23.61209 -15.56117,-43.62409 -36.97511,-50.33695 -0.81314,-33.6441 -28.3262,-60.7262 -62.16432,-60.7262 z"
         style="baseline-shift:baseline;display:inline;overflow:visible;fill:#b3b3b3;fill-opacity:1;stroke:#ffffff;stroke-width:6.80215;stroke-dasharray:none;enable-background:accumulate;stop-color:#000000;stop-opacity:1"
         id="path24"
         sodipodi:nodetypes="scsscssscscsscsscs" /><g
         id="g2"
         transform="translate(24.209754,-25.218494)"><path
           d="m 87.452974,341.4422 v 67.51604 m 0,16.879 v -16.879 m 0,0 12.659256,12.65927 M 87.452974,408.95824 74.793718,421.61751 M 100.11223,345.66196 87.452974,358.32121 74.793718,345.66196"
           stroke="#1c274c"
           stroke-width="6.32965"
           stroke-linecap="round"
           id="path1-1"
           style="fill:#727272;fill-opacity:1;stroke:#7b7b7b;stroke-opacity:1" /><path
           d="m 50.908984,362.54274 14.617695,8.4395 m 0,0 43.852971,25.31844 M 65.526679,370.98224 60.893051,353.68936 m 4.633628,17.29288 -17.29288,4.63363 m 61.145851,20.68481 14.61764,8.4395 m -14.61764,-8.4395 17.29296,-4.63371 m -17.29296,4.63371 4.63371,17.29296"
           stroke="#1c274c"
           stroke-width="6.32965"
           stroke-linecap="round"
           id="path2"
           style="fill:#727272;fill-opacity:1;stroke:#7b7b7b;stroke-opacity:1" /><path
           d="m 123.99603,362.54274 -14.61764,8.4395 m 0,0 -43.852768,25.31844 m 43.852768,-25.31844 4.6337,-17.29288 m -4.6337,17.29288 17.29296,4.63363 m -61.145728,20.68481 -14.617642,8.4395 m 14.617642,-8.4395 -17.292838,-4.63371 m 17.292838,4.63371 -4.633584,17.29296"
           stroke="#1c274c"
           stroke-width="6.32965"
           stroke-linecap="round"
           id="path3-3"
           style="fill:#727272;fill-opacity:1;stroke:#7b7b7b;stroke-opacity:1" /></g><g
         id="g21"><path
           d="M 181.26577,388.85296 V 456.369 m 0,16.879 v -16.879 m 0,0 12.65925,12.65927 M 181.26577,456.369 168.60651,469.02827 m 25.31851,-75.95555 -12.65925,12.65925 -12.65926,-12.65925"
           stroke="#1c274c"
           stroke-width="6.32965"
           stroke-linecap="round"
           id="path8"
           style="fill:#727272;fill-opacity:1;stroke:#7b7b7b;stroke-opacity:1" /><path
           d="m 144.72178,409.9535 14.61769,8.4395 m 0,0 43.85297,25.31844 M 159.33947,418.393 154.70584,401.10012 m 4.63363,17.29288 -17.29288,4.63363 m 61.14585,20.68481 14.61764,8.4395 m -14.61764,-8.4395 17.29296,-4.63371 m -17.29296,4.63371 4.63371,17.29296"
           stroke="#1c274c"
           stroke-width="6.32965"
           stroke-linecap="round"
           id="path13"
           style="fill:#727272;fill-opacity:1;stroke:#7b7b7b;stroke-opacity:1" /><path
           d="m 217.80882,409.9535 -14.61764,8.4395 m 0,0 -43.85276,25.31844 m 43.85276,-25.31844 4.6337,-17.29288 m -4.6337,17.29288 17.29296,4.63363 m -61.14572,20.68481 -14.61765,8.4395 m 14.61765,-8.4395 -17.29284,-4.63371 m 17.29284,4.63371 -4.63359,17.29296"
           stroke="#1c274c"
           stroke-width="6.32965"
           stroke-linecap="round"
           id="path14"
           style="fill:#727272;fill-opacity:1;stroke:#7b7b7b;stroke-opacity:1" /></g><g
         id="g17"
         transform="translate(191.66055,72.629263)"><path
           d="m 87.452974,341.4422 v 67.51604 m 0,16.879 v -16.879 m 0,0 12.659256,12.65927 M 87.452974,408.95824 74.793718,421.61751 M 100.11223,345.66196 87.452974,358.32121 74.793718,345.66196"
           stroke="#1c274c"
           stroke-width="6.32965"
           stroke-linecap="round"
           id="path15"
           style="fill:#727272;fill-opacity:1;stroke:#7b7b7b;stroke-opacity:1" /><path
           d="m 50.908984,362.54274 14.617695,8.4395 m 0,0 43.852971,25.31844 M 65.526679,370.98224 60.893051,353.68936 m 4.633628,17.29288 -17.29288,4.63363 m 61.145851,20.68481 14.61764,8.4395 m -14.61764,-8.4395 17.29296,-4.63371 m -17.29296,4.63371 4.63371,17.29296"
           stroke="#1c274c"
           stroke-width="6.32965"
           stroke-linecap="round"
           id="path16"
           style="fill:#727272;fill-opacity:1;stroke:#7b7b7b;stroke-opacity:1" /><path
           d="m 123.99603,362.54274 -14.61764,8.4395 m 0,0 -43.852768,25.31844 m 43.852768,-25.31844 4.6337,-17.29288 m -4.6337,17.29288 17.29296,4.63363 m -61.145728,20.68481 -14.617642,8.4395 m 14.617642,-8.4395 -17.292838,-4.63371 m 17.292838,4.63371 -4.633584,17.29296"
           stroke="#1c274c"
           stroke-width="6.32965"
           stroke-linecap="round"
           id="path17"
           style="fill:#727272;fill-opacity:1;stroke:#7b7b7b;stroke-opacity:1" /></g><g
         id="g20"
         transform="translate(298.58696,58.506906)"><path
           d="m 87.452974,341.4422 v 67.51604 m 0,16.879 v -16.879 m 0,0 12.659256,12.65927 M 87.452974,408.95824 74.793718,421.61751 M 100.11223,345.66196 87.452974,358.32121 74.793718,345.66196"
           stroke="#1c274c"
           stroke-width="6.32965"
           stroke-linecap="round"
           id="path18"
           style="fill:#727272;fill-opacity:1;stroke:#7b7b7b;stroke-opacity:1" /><path
           d="m 50.908984,362.54274 14.617695,8.4395 m 0,0 43.852971,25.31844 M 65.526679,370.98224 60.893051,353.68936 m 4.633628,17.29288 -17.29288,4.63363 m 61.145851,20.68481 14.61764,8.4395 m -14.61764,-8.4395 17.29296,-4.63371 m -17.29296,4.63371 4.63371,17.29296"
           stroke="#1c274c"
           stroke-width="6.32965"
           stroke-linecap="round"
           id="path19"
           style="fill:#727272;fill-opacity:1;stroke:#7b7b7b;stroke-opacity:1" /><path
           d="m 123.99603,362.54274 -14.61764,8.4395 m 0,0 -43.852768,25.31844 m 43.852768,-25.31844 4.6337,-17.29288 m -4.6337,17.29288 17.29296,4.63363 m -61.145728,20.68481 -14.617642,8.4395 m 14.617642,-8.4395 -17.292838,-4.63371 m 17.292838,4.63371 -4.633584,17.29296"
           stroke="#1c274c"
           stroke-width="6.32965"
           stroke-linecap="round"
           id="path20"
           style="fill:#727272;fill-opacity:1;stroke:#7b7b7b;stroke-opacity:1" /></g></g></g></svg>
