<?xml version="1.0" encoding="UTF-8" standalone="no"?>
<!-- Created with Inkscape (http://www.inkscape.org/) -->

<svg
   version="1.1"
   id="svg1"
   width="512"
   height="512"
   viewBox="0 0 512 512"
   sodipodi:docname="11.svg"
   inkscape:version="1.2.2 (b0a8486541, 2022-12-01)"
   xml:space="preserve"
   xmlns:inkscape="http://www.inkscape.org/namespaces/inkscape"
   xmlns:sodipodi="http://sodipodi.sourceforge.net/DTD/sodipodi-0.dtd"
   xmlns="http://www.w3.org/2000/svg"
   xmlns:svg="http://www.w3.org/2000/svg"><defs
     id="defs1" /><sodipodi:namedview
     id="namedview1"
     pagecolor="#ffffff"
     bordercolor="#000000"
     borderopacity="0.25"
     inkscape:showpageshadow="2"
     inkscape:pageopacity="0.0"
     inkscape:pagecheckerboard="0"
     inkscape:deskcolor="#d1d1d1"
     showgrid="false"
     inkscape:zoom="0.70098038"
     inkscape:cx="210.41958"
     inkscape:cy="248.22378"
     inkscape:window-width="1440"
     inkscape:window-height="710"
     inkscape:window-x="0"
     inkscape:window-y="0"
     inkscape:window-maximized="0"
     inkscape:current-layer="g1" /><g
     inkscape:groupmode="layer"
     inkscape:label="Image"
     id="g1"><g
       id="g18"
       transform="translate(2.0459988,-1.1380417)"><path
         id="path28"
         style="baseline-shift:baseline;display:inline;overflow:visible;vector-effect:none;fill:#999999;fill-opacity:1;stroke-width:9.48508;enable-background:accumulate;stop-color:#000000;stop-opacity:1"
         d="m 396.25785,16.737175 c -25.34579,0.109663 -48.35881,15.38915 -59.09644,39.237066 -7.15225,-3.468988 -14.94842,-5.271025 -22.84198,-5.279774 -25.74762,0.07299 -47.88169,18.976435 -52.92741,45.202284 -28.5305,1.712892 -50.86271,26.170429 -51.00078,55.854449 0.11609,15.67746 6.52931,30.59243 17.69187,41.14519 12.47542,-19.4442 34.22193,-32.36407 59.04086,-32.36407 30.65114,0 56.6289,19.68449 66.1917,47.07335 5.51635,-5.80174 15.61268,20.62742 18.27315,12.95571 6.308,2.70959 13.05253,4.1553 19.87789,4.26087 6.37293,-0.11732 12.67581,-1.40298 18.61816,-3.79773 10.17493,11.7586 18.78522,-14.88436 34.00588,-14.77122 29.89689,0.003 54.13436,-25.17078 54.13158,-56.22496 -0.0124,-24.3986 -15.17426,-46.00381 -37.5327,-53.483195 0.6961,-3.868171 1.068,-7.79175 1.11152,-11.726658 10e-4,-37.60056 -29.344,-68.082345 -65.5433,-68.081312 z"
         sodipodi:nodetypes="ccccccsccccccccc" /><path
         d="m 365.50827,403.43976 c -18.35763,17.55682 -38.28544,36.81246 -42.69264,49.05987 -4.40319,12.24886 1.95446,25.74837 14.20187,30.15556 12.24887,4.40318 25.74836,-1.95447 30.15557,-14.20188 4.40317,-12.24886 1.58988,-40.57831 -1.6648,-65.01355 z"
         style="baseline-shift:baseline;display:inline;overflow:visible;vector-effect:none;fill:#3fa9f5;fill-opacity:1;stroke-width:9.44259;enable-background:accumulate;stop-color:#000000"
         id="path4"
         sodipodi:nodetypes="ccccc" /><path
         d="m 169.70511,406.15189 c -18.35762,17.55683 -38.28544,36.81246 -42.69264,49.05987 -4.40319,12.24886 1.95446,25.74837 14.20187,30.15557 12.24887,4.40317 25.74837,-1.95448 30.15557,-14.20189 4.40317,-12.24885 1.58988,-40.5783 -1.6648,-65.01355 z"
         style="baseline-shift:baseline;display:inline;overflow:visible;vector-effect:none;fill:#b3b3b3;fill-opacity:1;stroke-width:9.44259;enable-background:accumulate;stop-color:#000000"
         id="path9"
         sodipodi:nodetypes="ccccc" /><path
         d="m 266.68353,416.92728 c -18.35762,17.55682 -38.28543,36.81245 -42.69264,49.05986 -4.40318,12.24887 1.95447,25.74838 14.20188,30.15557 12.24886,4.40317 25.74836,-1.95448 30.15556,-14.20189 4.40318,-12.24885 1.58989,-40.5783 -1.6648,-65.01354 z"
         style="baseline-shift:baseline;display:inline;overflow:visible;vector-effect:none;fill:#b3b3b3;fill-opacity:1;stroke-width:9.44259;enable-background:accumulate;stop-color:#000000"
         id="path10"
         sodipodi:nodetypes="ccccc" /><path
         d="m 364.49082,402.00752 c -18.35762,17.55682 -38.28543,36.81246 -42.69264,49.05987 -4.40318,12.24886 1.95447,25.74837 14.20188,30.15556 12.24886,4.40318 25.74836,-1.95447 30.15556,-14.20188 4.40318,-12.24886 1.58989,-40.57831 -1.6648,-65.01355 z"
         style="baseline-shift:baseline;display:inline;overflow:visible;vector-effect:none;fill:#b3b3b3;fill-opacity:1;stroke-width:9.44259;enable-background:accumulate;stop-color:#000000"
         id="path11"
         sodipodi:nodetypes="ccccc" /><path
         d="m 146.4226,139.82077 c -45.30536,0 -82.031033,36.72568 -82.031033,82.03102 0,3.07688 0.207249,6.1071 0.537234,9.09605 -29.299769,9.54495 -50.500589,37.04132 -50.500589,69.5263 0,40.40116 32.75615,73.15731 73.157304,73.15731 15.878544,0 30.543164,-5.11477 42.534604,-13.7089 7.90251,15.48998 23.97094,26.121 42.55314,26.121 18.51789,0 34.54736,-10.55163 42.47904,-25.95428 6.95851,16.62817 23.36293,28.30701 42.51608,28.30701 19.57064,0 36.25691,-12.21089 42.94218,-29.41853 7.18433,9.42124 18.48998,15.5244 31.25255,15.5244 16.61583,0 30.79135,-10.31215 36.55086,-24.87978 7.1892,9.34924 18.45449,15.39469 31.15993,15.39469 17.3406,0 32.04388,-11.22729 37.27337,-26.80643 2.13553,0.30618 4.30075,0.51874 6.52099,0.51874 25.22152,0 45.66541,-20.4439 45.66541,-45.66543 0,-25.22153 -20.44388,-45.66542 -45.66541,-45.66542 -2.1558,0 -4.2595,0.21125 -6.33573,0.50015 -1.04632,-26.6328 -22.90733,-47.92553 -49.79662,-47.92553 -12.42875,0 -23.75864,4.5795 -32.49377,12.09716 -8.17781,-29.70009 -35.31908,-51.53801 -67.61818,-51.53801 -27.02623,0 -50.44165,15.29416 -62.17167,37.68092 -10.15227,-33.7763 -41.44618,-58.39245 -78.5297,-58.39245 z"
         style="baseline-shift:baseline;display:inline;overflow:visible;vector-effect:none;fill:#b3b3b3;fill-opacity:1;stroke:#ffffff;stroke-width:9.48508;enable-background:accumulate;stop-color:#000000;stop-opacity:1"
         id="path2"
         sodipodi:nodetypes="sscsscscscscscssscscscss" /></g></g></svg>
