<?xml version="1.0" encoding="UTF-8" standalone="no"?>
<!-- Created with Inkscape (http://www.inkscape.org/) -->

<svg
   version="1.1"
   id="svg1"
   width="512"
   height="512"
   viewBox="0 0 512 512"
   sodipodi:docname="12.svg"
   inkscape:version="1.2.2 (b0a8486541, 2022-12-01)"
   xmlns:inkscape="http://www.inkscape.org/namespaces/inkscape"
   xmlns:sodipodi="http://sodipodi.sourceforge.net/DTD/sodipodi-0.dtd"
   xmlns="http://www.w3.org/2000/svg"
   xmlns:svg="http://www.w3.org/2000/svg">
  <defs
     id="defs1" />
  <sodipodi:namedview
     id="namedview1"
     pagecolor="#ffffff"
     bordercolor="#000000"
     borderopacity="0.25"
     inkscape:showpageshadow="2"
     inkscape:pageopacity="0.0"
     inkscape:pagecheckerboard="0"
     inkscape:deskcolor="#d1d1d1"
     showgrid="false"
     inkscape:zoom="0.70098038"
     inkscape:cx="340.23777"
     inkscape:cy="475.04896"
     inkscape:window-width="1440"
     inkscape:window-height="560"
     inkscape:window-x="0"
     inkscape:window-y="0"
     inkscape:window-maximized="0"
     inkscape:current-layer="g1" />
  <g
     inkscape:groupmode="layer"
     inkscape:label="Image"
     id="g1">
    <g
       id="g120"
       transform="translate(2.6234621,0.62425967)">
      <path
         id="path28"
         style="baseline-shift:baseline;display:inline;overflow:visible;vector-effect:none;fill:#999999;fill-opacity:1;stroke-width:9.78005;enable-background:accumulate;stop-color:#000000;stop-opacity:1"
         d="m 400.10588,10.177734 c -26.13402,0.113076 -49.86271,15.867738 -60.93427,40.457297 -7.37467,-3.57687 -15.41331,-5.434948 -23.55234,-5.44397 -26.54836,0.07526 -49.37077,19.56658 -54.57341,46.608028 -29.41777,1.766163 -52.44449,26.984301 -52.58685,57.591471 0.11968,16.16501 6.73237,31.54383 18.24208,42.42477 12.86338,-20.04889 35.28619,-33.37058 60.87696,-33.37058 31.60436,0 47.79822,49.04574 57.65843,77.28637 5.68791,-5.98216 10.05491,-13.17793 12.79811,-21.08822 6.50418,2.79386 13.45846,4.28452 20.49607,4.39338 6.57112,-0.12097 13.07001,-1.44662 19.19716,-3.91584 10.49137,12.12429 36.0045,-9.64947 51.69852,-9.53282 30.82664,0.004 55.81789,-25.95357 55.81502,-57.9735 -0.0128,-25.15738 -15.64617,-47.43449 -38.69994,-55.146473 0.71775,-3.988467 1.10122,-8.034065 1.1461,-12.091345 10e-4,-38.769902 -30.25658,-70.19964 -67.58164,-70.198568 z"
         sodipodi:nodetypes="ccccccsccccccccc" />
      <path
         d="m 142.50101,137.08911 c -46.7143,0 -84.582108,37.8678 -84.582108,84.5821 0,3.17257 0.213694,6.29703 0.553942,9.37892 -30.210961,9.84178 -52.0711033,38.19326 -52.0711033,71.68849 0,41.65759 33.7748293,75.43242 75.4324143,75.43242 16.372355,0 31.493035,-5.27382 43.857395,-14.13522 8.14828,15.97169 24.71641,26.93333 43.87649,26.93333 19.09379,0 35.62175,-10.87977 43.80009,-26.76142 7.17492,17.14528 24.0895,29.18733 43.83829,29.18733 20.17927,0 37.38446,-12.59064 44.27763,-30.33342 7.40777,9.71423 19.06501,16.00718 32.22448,16.00718 17.13256,0 31.74893,-10.63284 37.68755,-25.65352 7.41278,9.64 19.0284,15.87347 32.12898,15.87347 17.87987,0 33.04041,-11.57645 38.43253,-27.64009 2.20193,0.3157 4.4345,0.53487 6.72378,0.53487 26.00589,0 47.08557,-21.07967 47.08557,-47.08557 0,-26.0059 -21.07967,-47.08557 -47.08557,-47.08557 -2.22284,0 -4.39197,0.21781 -6.53277,0.51571 -1.07886,-27.46107 -23.61972,-49.41597 -51.34524,-49.41597 -12.81527,0 -24.4975,4.72191 -33.50429,12.47337 -8.43212,-30.62373 -36.41747,-53.14079 -69.72103,-53.14079 -27.86672,0 -52.01033,15.76979 -64.10514,38.85276 -10.468,-34.82671 -42.73511,-60.2084 -80.9719,-60.2084 z"
         style="baseline-shift:baseline;display:inline;overflow:visible;vector-effect:none;fill:#b3b3b3;fill-opacity:1;stroke:#ffffff;stroke-width:9.78005;enable-background:accumulate;stop-color:#000000;stop-opacity:1"
         id="path2"
         sodipodi:nodetypes="sscsscscscscscssscscscss" />
      <path
         d="m 176.38105,403.41321 c -19.01368,18.18426 -39.65367,38.12804 -44.21838,50.81315 -4.56054,12.68661 2.02431,26.66855 14.70942,31.23325 12.68661,4.56053 26.66855,-2.02431 31.23325,-14.70942 4.56053,-12.68661 1.6467,-42.02848 -1.72429,-67.33698 z"
         style="baseline-shift:baseline;display:inline;overflow:visible;vector-effect:none;fill:#3fa9f5;fill-opacity:1;stroke-width:9.78005;enable-background:accumulate;stop-color:#000000;stop-opacity:1"
         id="path4"
         sodipodi:nodetypes="ccccc" />
      <path
         d="m 274.02021,417.08124 c -19.01368,18.18426 -39.65367,38.12805 -44.21838,50.81316 -4.56054,12.6866 2.02431,26.66855 14.70942,31.23325 12.68661,4.56053 26.66855,-2.02432 31.23325,-14.70943 4.56054,-12.6866 1.6467,-42.02848 -1.72429,-67.33698 z"
         style="baseline-shift:baseline;display:inline;overflow:visible;vector-effect:none;fill:#3fa9f5;fill-opacity:1;stroke-width:9.78005;enable-background:accumulate;stop-color:#000000"
         id="path4-8"
         sodipodi:nodetypes="ccccc" />
      <path
         d="m 372.81234,401.07753 c -19.01368,18.18426 -39.65367,38.12804 -44.21838,50.81315 -4.56054,12.68661 2.02431,26.66855 14.70942,31.23325 12.68661,4.56053 26.66855,-2.02431 31.23325,-14.70942 4.56054,-12.68661 1.6467,-42.02849 -1.72429,-67.33698 z"
         style="baseline-shift:baseline;display:inline;overflow:visible;vector-effect:none;fill:#3fa9f5;fill-opacity:1;stroke-width:9.78005;enable-background:accumulate;stop-color:#000000"
         id="path4-8-4"
         sodipodi:nodetypes="ccccc" />
    </g>
  </g>
</svg>
