<?xml version="1.0" encoding="UTF-8" standalone="no"?>
<!-- Created with Inkscape (http://www.inkscape.org/) -->

<svg
   version="1.1"
   id="svg2"
   width="512"
   height="512"
   viewBox="0 0 512 512"
   sodipodi:docname="14.svg"
   inkscape:version="1.2.2 (b0a8486541, 2022-12-01)"
   xmlns:inkscape="http://www.inkscape.org/namespaces/inkscape"
   xmlns:sodipodi="http://sodipodi.sourceforge.net/DTD/sodipodi-0.dtd"
   xmlns="http://www.w3.org/2000/svg"
   xmlns:svg="http://www.w3.org/2000/svg">
  <defs
     id="defs6" />
  <sodipodi:namedview
     id="namedview4"
     pagecolor="#ffffff"
     bordercolor="#000000"
     borderopacity="0.25"
     inkscape:showpageshadow="2"
     inkscape:pageopacity="0.0"
     inkscape:pagecheckerboard="0"
     inkscape:deskcolor="#d1d1d1"
     showgrid="false"
     inkscape:zoom="0.74176888"
     inkscape:cx="24.940383"
     inkscape:cy="43.140122"
     inkscape:window-width="1920"
     inkscape:window-height="1000"
     inkscape:window-x="0"
     inkscape:window-y="0"
     inkscape:window-maximized="1"
     inkscape:current-layer="g8" />
  <g
     inkscape:groupmode="layer"
     inkscape:label="Image"
     id="g8">
    <g
       id="g134"
       transform="matrix(1.0607942,0,0,1.0607942,23.499839,8.9343002)">
      <path
         id="path28"
         style="baseline-shift:baseline;display:inline;overflow:visible;vector-effect:none;fill:#999999;fill-opacity:1;stroke-width:8.26547;enable-background:accumulate;stop-color:#000000"
         d="M 343.18171,0.06564978 C 321.09491,0.1613126 301.04091,13.476074 291.68395,34.257553 c -6.23261,-3.022901 -13.02633,-4.593273 -19.9049,-4.600899 -22.43702,0.06348 -41.72507,16.536418 -46.12195,39.390167 -24.86203,1.492636 -44.32274,22.805349 -44.44309,48.672579 0.10125,13.66163 5.68982,26.65885 15.41707,35.85472 10.87129,-16.94405 29.82162,-28.20271 51.44933,-28.20271 26.70997,0 40.39596,41.45033 48.7292,65.31749 4.80705,-5.05576 8.49774,-11.13713 10.81612,-17.8224 5.49692,2.36118 11.37424,3.62101 17.32197,3.713 5.55351,-0.10217 11.04594,-1.2226 16.22423,-3.30942 8.86664,10.2467 30.42865,-8.1551 43.69228,-8.05653 26.05271,0.004 47.17368,-21.93427 47.17128,-48.99546 -0.0101,-21.261449 -13.22315,-40.08859 -32.70673,-46.606286 0.60663,-3.370764 0.93069,-6.78987 0.96862,-10.218845 8.5e-4,-32.765786 -25.57094,-59.32820325 -57.11567,-59.32730922 z"
         sodipodi:nodetypes="ccccccsccccccccc" />
      <path
         d="m 125.47054,107.32301 c -39.479912,0 -71.483382,32.00342 -71.483382,71.48338 0,2.68126 0.18043,5.32187 0.468379,7.92643 -25.532369,8.31765 -44.007175,32.27854 -44.007175,60.58655 0,35.2063 28.544355,63.75065 63.750662,63.75065 13.836874,0 26.615896,-4.45707 37.065456,-11.94618 6.8864,13.49822 20.88872,22.76231 37.08161,22.76231 16.13683,0 30.10521,-9.19487 37.01701,-22.61701 6.0638,14.49007 20.35892,24.66726 37.04932,24.66726 17.05426,0 31.59495,-10.64082 37.42065,-25.63586 6.26056,8.20984 16.11251,13.52822 27.23405,13.52822 14.47935,0 26.83216,-8.98618 31.85109,-21.68068 6.2648,8.14707 16.08161,13.41521 27.15337,13.41521 15.11091,0 27.92365,-9.78369 32.4807,-23.35964 1.86093,0.26663 3.74779,0.45195 5.68253,0.45195 21.97851,0 39.7937,-17.81519 39.7937,-39.79371 0,-21.97857 -17.81519,-39.7937 -39.7937,-39.7937 -1.87863,0 -3.71182,0.18394 -5.52108,0.43598 -0.91184,-23.20831 -19.96188,-41.76319 -43.39368,-41.76319 -10.83066,0 -20.70374,3.99067 -28.31568,10.54171 -7.12634,-25.88125 -30.77772,-44.9112 -58.92378,-44.9112 -23.55113,0 -43.95579,13.3276 -54.17758,32.83589 -8.84685,-29.43334 -36.11697,-50.88429 -68.43224,-50.88429 z"
         style="baseline-shift:baseline;display:inline;overflow:visible;vector-effect:none;fill:#b3b3b3;fill-opacity:1;stroke:#ffffff;stroke-width:8.26547;enable-background:accumulate;stop-color:#000000"
         id="path2"
         sodipodi:nodetypes="sscsscscscscscssscscscss" />
      <path
         style="fill:#717171;fill-opacity:1;stroke-width:9.22914"
         d="m 72.022848,331.02961 h 60.485372 l -21.22178,36.7572 H 90.443393 Z"
         id="path344" />
      <path
         style="fill:#164568;fill-opacity:1;stroke-width:9.22914"
         d="m 85.219653,375.29391 12.372006,33.81682 19.245351,-20.34508 v -14.29654 z"
         id="path1099" />
      <path
         style="fill:#717171;fill-opacity:1;stroke-width:9.22914"
         d="m 132.50822,387.66592 h 60.48538 l -21.22178,36.7572 h -20.84305 z"
         id="path2067" />
      <path
         style="fill:#164568;fill-opacity:1;stroke-width:9.22914"
         d="m 145.70503,431.93022 12.37201,33.81682 19.24535,-20.34508 v -14.29654 z"
         id="path2069" />
      <path
         style="fill:#717171;fill-opacity:1;stroke-width:9.22914"
         d="m 189.6944,331.30454 h 60.48538 l -21.22178,36.7572 h -20.84305 z"
         id="path2071" />
      <path
         style="fill:#164568;fill-opacity:1;stroke-width:9.22914"
         d="m 202.89121,375.56884 12.372,33.81682 19.24536,-20.34508 v -14.29654 z"
         id="path2073" />
      <path
         style="fill:#717171;fill-opacity:1;stroke-width:9.22914"
         d="m 246.05578,384.64165 h 60.48538 l -21.22178,36.7572 h -20.84305 z"
         id="path2075" />
      <path
         style="fill:#164568;fill-opacity:1;stroke-width:9.22914"
         d="m 259.25259,428.90595 12.372,33.81682 19.24536,-20.34508 v -14.29654 z"
         id="path2077" />
      <path
         style="fill:#717171;fill-opacity:1;stroke-width:9.22914"
         d="m 306.26623,332.95415 h 60.48538 l -21.22178,36.75719 h -20.84305 z"
         id="path2079" />
      <path
         style="fill:#164568;fill-opacity:1;stroke-width:9.22914"
         d="m 319.46304,377.21845 12.372,33.81682 19.24536,-20.34508 v -14.29654 z"
         id="path2081" />
    </g>
  </g>
</svg>
