<?xml version="1.0" encoding="UTF-8" standalone="no"?>
<!-- Created with Inkscape (http://www.inkscape.org/) -->

<svg
   version="1.1"
   id="svg1"
   width="512"
   height="512"
   viewBox="0 0 512 512"
   sodipodi:docname="15.svg"
   inkscape:version="1.2.2 (b0a8486541, 2022-12-01)"
   xml:space="preserve"
   xmlns:inkscape="http://www.inkscape.org/namespaces/inkscape"
   xmlns:sodipodi="http://sodipodi.sourceforge.net/DTD/sodipodi-0.dtd"
   xmlns="http://www.w3.org/2000/svg"
   xmlns:svg="http://www.w3.org/2000/svg"><defs
     id="defs1" /><sodipodi:namedview
     id="namedview1"
     pagecolor="#ffffff"
     bordercolor="#000000"
     borderopacity="0.25"
     inkscape:showpageshadow="2"
     inkscape:pageopacity="0.0"
     inkscape:pagecheckerboard="0"
     inkscape:deskcolor="#d1d1d1"
     showgrid="false"
     inkscape:zoom="0.49566798"
     inkscape:cx="216.87905"
     inkscape:cy="354.06766"
     inkscape:window-width="1168"
     inkscape:window-height="713"
     inkscape:window-x="0"
     inkscape:window-y="0"
     inkscape:window-maximized="0"
     inkscape:current-layer="g1" /><g
     inkscape:groupmode="layer"
     inkscape:label="Image"
     id="g1"><g
       id="g146"
       transform="translate(2.6234583,-5.2263964)"><path
         id="path28"
         style="baseline-shift:baseline;display:inline;overflow:visible;vector-effect:none;fill:#999999;fill-opacity:1;stroke-width:8.88133;enable-background:accumulate;stop-color:#000000;stop-opacity:1"
         d="m 386.62248,24.443469 c -23.73248,0.102684 -45.28067,14.409604 -55.33484,36.739555 -6.69698,-3.24818 -13.99693,-4.935515 -21.38804,-4.943707 -24.10875,0.06834 -44.83395,17.768549 -49.55849,42.325078 -26.71449,1.603865 -47.62522,24.504635 -47.7545,52.299215 0.10868,14.67956 6.11372,28.64518 16.56576,38.52624 11.68133,-18.20654 32.04364,-30.30406 55.2828,-30.30406 28.70014,0 43.4059,44.53878 52.36003,70.1843 5.16523,-5.43245 9.13094,-11.96698 11.62205,-19.15037 5.90649,2.53713 12.22172,3.8908 18.61263,3.98966 5.96728,-0.10985 11.86896,-1.31368 17.43307,-3.556 9.52729,11.01015 32.69594,-8.76276 46.94779,-8.65682 27.99389,0.004 50.68862,-23.56862 50.68602,-52.64614 -0.0116,-22.8456 -14.2084,-43.0756 -35.14369,-50.078903 0.65179,-3.621954 1.00002,-7.295791 1.04078,-10.980235 9e-4,-35.207221 -27.47621,-63.748787 -61.37137,-63.747813 z"
         sodipodi:nodetypes="ccccccsccccccccc" /><path
         d="m 152.68969,139.69258 c -42.42158,0 -76.809606,34.38802 -76.809606,76.8096 0,2.88103 0.194057,5.71838 0.503039,8.51707 -27.434786,8.93738 -47.286135,34.68356 -47.286135,65.10082 0,37.82954 30.67116,68.50071 68.500706,68.50071 14.867846,0 28.599046,-4.78919 39.827206,-12.83629 7.39951,14.504 22.44515,24.45834 39.84455,24.45834 17.33921,0 32.34836,-9.88 39.77517,-24.30223 6.5156,15.56975 21.87584,26.50521 39.80986,26.50521 18.32494,0 33.9491,-11.43364 40.20882,-27.54599 6.72705,8.82157 17.31308,14.53624 29.26328,14.53624 15.55821,0 28.83143,-9.65576 34.22433,-23.29614 6.7316,8.75415 17.27982,14.4148 29.17655,14.4148 16.23684,0 30.00424,-10.51265 34.90086,-25.10016 1.99958,0.28669 4.027,0.48572 6.10591,0.48572 23.61613,0 42.75874,-19.1426 42.75874,-42.75873 0,-23.61614 -19.1426,-42.75874 -42.75874,-42.75874 -2.01858,0 -3.98838,0.19779 -5.93246,0.46832 -0.97971,-24.93759 -21.44923,-44.87499 -46.62697,-44.87499 -11.63764,0 -22.24635,4.288 -30.42548,11.32715 -7.65727,-27.80962 -33.07096,-48.25752 -63.31416,-48.25752 -25.30596,0 -47.23095,14.32065 -58.21433,35.28247 -9.50606,-31.62639 -38.80805,-54.67568 -73.53115,-54.67568 z"
         style="baseline-shift:baseline;display:inline;overflow:visible;vector-effect:none;fill:#b3b3b3;fill-opacity:1;stroke:#ffffff;stroke-width:8.88133;enable-background:accumulate;stop-color:#000000;stop-opacity:1"
         id="path2"
         sodipodi:nodetypes="sscsscscscscscssscscscss" /><path
         d="m 283.63903,415.34327 c -15.74152,15.05484 -32.82947,31.56639 -36.60862,42.06846 -3.77569,10.50331 1.67594,22.07902 12.17801,25.85816 10.5033,3.77569 22.07902,-1.67594 25.85816,-12.178 3.77569,-10.50331 1.36331,-34.7956 -1.42755,-55.74862 z"
         style="baseline-shift:baseline;display:inline;overflow:visible;vector-effect:none;fill:#3fa9f5;fill-opacity:1;stroke-width:8.09695;enable-background:accumulate;stop-color:#000000"
         id="path4-8-4"
         sodipodi:nodetypes="ccccc" /><path
         d="m 337.84882,362.56005 c -15.74152,15.05484 -32.82947,31.56639 -36.60862,42.06846 -3.77569,10.50331 1.67594,22.07902 12.17801,25.85816 10.5033,3.77569 22.07902,-1.67594 25.85816,-12.178 3.77569,-10.50331 1.36331,-34.7956 -1.42755,-55.74862 z"
         style="baseline-shift:baseline;display:inline;overflow:visible;vector-effect:none;fill:#3fa9f5;fill-opacity:1;stroke-width:8.09695;enable-background:accumulate;stop-color:#000000"
         id="path1"
         sodipodi:nodetypes="ccccc" /><path
         d="m 367.80686,412.49012 c -15.74152,15.05484 -32.82947,31.56639 -36.60862,42.06846 -3.77569,10.50331 1.67594,22.07902 12.17801,25.85816 10.5033,3.77569 22.07902,-1.67594 25.85816,-12.178 3.77569,-10.50331 1.36331,-34.7956 -1.42755,-55.74862 z"
         style="baseline-shift:baseline;display:inline;overflow:visible;vector-effect:none;fill:#3fa9f5;fill-opacity:1;stroke-width:8.09695;enable-background:accumulate;stop-color:#000000"
         id="path3"
         sodipodi:nodetypes="ccccc" /><path
         d="m 419.1635,348.29431 c -15.74152,15.05484 -32.82947,31.56639 -36.60862,42.06846 -3.77569,10.50331 1.67594,22.07902 12.17801,25.85816 10.5033,3.77569 22.07902,-1.67594 25.85816,-12.178 3.77569,-10.50331 1.36331,-34.7956 -1.42755,-55.74862 z"
         style="baseline-shift:baseline;display:inline;overflow:visible;vector-effect:none;fill:#3fa9f5;fill-opacity:1;stroke-width:8.09695;enable-background:accumulate;stop-color:#000000"
         id="path4"
         sodipodi:nodetypes="ccccc" /><g
         id="g2"
         transform="matrix(0.75887272,0,0,0.75887272,19.907384,105.40241)"><path
           d="m 87.452974,341.4422 v 67.51604 m 0,16.879 v -16.879 m 0,0 12.659256,12.65927 M 87.452974,408.95824 74.793718,421.61751 M 100.11223,345.66196 87.452974,358.32121 74.793718,345.66196"
           stroke="#1c274c"
           stroke-width="6.32965"
           stroke-linecap="round"
           id="path1-1"
           style="fill:#727272;fill-opacity:1;stroke:#7b7b7b;stroke-opacity:1" /><path
           d="m 50.908984,362.54274 14.617695,8.4395 m 0,0 43.852971,25.31844 M 65.526679,370.98224 60.893051,353.68936 m 4.633628,17.29288 -17.29288,4.63363 m 61.145851,20.68481 14.61764,8.4395 m -14.61764,-8.4395 17.29296,-4.63371 m -17.29296,4.63371 4.63371,17.29296"
           stroke="#1c274c"
           stroke-width="6.32965"
           stroke-linecap="round"
           id="path2-7"
           style="fill:#727272;fill-opacity:1;stroke:#7b7b7b;stroke-opacity:1" /><path
           d="m 123.99603,362.54274 -14.61764,8.4395 m 0,0 -43.852768,25.31844 m 43.852768,-25.31844 4.6337,-17.29288 m -4.6337,17.29288 17.29296,4.63363 m -61.145728,20.68481 -14.617642,8.4395 m 14.617642,-8.4395 -17.292838,-4.63371 m 17.292838,4.63371 -4.633584,17.29296"
           stroke="#1c274c"
           stroke-width="6.32965"
           stroke-linecap="round"
           id="path3-3"
           style="fill:#727272;fill-opacity:1;stroke:#7b7b7b;stroke-opacity:1" /></g><g
         id="g7"
         transform="matrix(0.75887272,0,0,0.75887272,79.110182,172.45136)"><path
           d="m 87.452974,341.4422 v 67.51604 m 0,16.879 v -16.879 m 0,0 12.659256,12.65927 M 87.452974,408.95824 74.793718,421.61751 M 100.11223,345.66196 87.452974,358.32121 74.793718,345.66196"
           stroke="#1c274c"
           stroke-width="6.32965"
           stroke-linecap="round"
           id="path5"
           style="fill:#727272;fill-opacity:1;stroke:#7b7b7b;stroke-opacity:1" /><path
           d="m 50.908984,362.54274 14.617695,8.4395 m 0,0 43.852971,25.31844 M 65.526679,370.98224 60.893051,353.68936 m 4.633628,17.29288 -17.29288,4.63363 m 61.145851,20.68481 14.61764,8.4395 m -14.61764,-8.4395 17.29296,-4.63371 m -17.29296,4.63371 4.63371,17.29296"
           stroke="#1c274c"
           stroke-width="6.32965"
           stroke-linecap="round"
           id="path6"
           style="fill:#727272;fill-opacity:1;stroke:#7b7b7b;stroke-opacity:1" /><path
           d="m 123.99603,362.54274 -14.61764,8.4395 m 0,0 -43.852768,25.31844 m 43.852768,-25.31844 4.6337,-17.29288 m -4.6337,17.29288 17.29296,4.63363 m -61.145728,20.68481 -14.617642,8.4395 m 14.617642,-8.4395 -17.292838,-4.63371 m 17.292838,4.63371 -4.633584,17.29296"
           stroke="#1c274c"
           stroke-width="6.32965"
           stroke-linecap="round"
           id="path7"
           style="fill:#727272;fill-opacity:1;stroke:#7b7b7b;stroke-opacity:1" /></g><g
         id="g10"
         transform="matrix(0.75887272,0,0,0.75887272,141.87941,117.52828)"><path
           d="m 87.452974,341.4422 v 67.51604 m 0,16.879 v -16.879 m 0,0 12.659256,12.65927 M 87.452974,408.95824 74.793718,421.61751 M 100.11223,345.66196 87.452974,358.32121 74.793718,345.66196"
           stroke="#1c274c"
           stroke-width="6.32965"
           stroke-linecap="round"
           id="path8"
           style="fill:#727272;fill-opacity:1;stroke:#7b7b7b;stroke-opacity:1" /><path
           d="m 50.908984,362.54274 14.617695,8.4395 m 0,0 43.852971,25.31844 M 65.526679,370.98224 60.893051,353.68936 m 4.633628,17.29288 -17.29288,4.63363 m 61.145851,20.68481 14.61764,8.4395 m -14.61764,-8.4395 17.29296,-4.63371 m -17.29296,4.63371 4.63371,17.29296"
           stroke="#1c274c"
           stroke-width="6.32965"
           stroke-linecap="round"
           id="path9"
           style="fill:#727272;fill-opacity:1;stroke:#7b7b7b;stroke-opacity:1" /><path
           d="m 123.99603,362.54274 -14.61764,8.4395 m 0,0 -43.852768,25.31844 m 43.852768,-25.31844 4.6337,-17.29288 m -4.6337,17.29288 17.29296,4.63363 m -61.145728,20.68481 -14.617642,8.4395 m 14.617642,-8.4395 -17.292838,-4.63371 m 17.292838,4.63371 -4.633584,17.29296"
           stroke="#1c274c"
           stroke-width="6.32965"
           stroke-linecap="round"
           id="path10"
           style="fill:#727272;fill-opacity:1;stroke:#7b7b7b;stroke-opacity:1" /></g></g></g></svg>
