<?xml version="1.0" encoding="UTF-8" standalone="no"?>
<!-- Created with Inkscape (http://www.inkscape.org/) -->

<svg
   version="1.1"
   id="svg1"
   width="512"
   height="512"
   viewBox="0 0 512 512"
   sodipodi:docname="19.svg"
   inkscape:version="1.2.2 (b0a8486541, 2022-12-01)"
   xml:space="preserve"
   xmlns:inkscape="http://www.inkscape.org/namespaces/inkscape"
   xmlns:sodipodi="http://sodipodi.sourceforge.net/DTD/sodipodi-0.dtd"
   xmlns="http://www.w3.org/2000/svg"
   xmlns:svg="http://www.w3.org/2000/svg"><defs
     id="defs1" /><sodipodi:namedview
     id="namedview1"
     pagecolor="#ffffff"
     bordercolor="#000000"
     borderopacity="0.25"
     inkscape:showpageshadow="2"
     inkscape:pageopacity="0.0"
     inkscape:pagecheckerboard="0"
     inkscape:deskcolor="#d1d1d1"
     showgrid="false"
     inkscape:zoom="0.49566798"
     inkscape:cx="356.08514"
     inkscape:cy="223.94023"
     inkscape:window-width="1440"
     inkscape:window-height="710"
     inkscape:window-x="0"
     inkscape:window-y="0"
     inkscape:window-maximized="0"
     inkscape:current-layer="g1" /><g
     inkscape:groupmode="layer"
     inkscape:label="Image"
     id="g1"><g
       id="g186"
       transform="translate(10.581891,-0.121026)"><path
         id="path28"
         style="baseline-shift:baseline;display:inline;overflow:visible;vector-effect:none;fill:#999999;fill-opacity:1;stroke-width:8.16236;enable-background:accumulate;stop-color:#000000;stop-opacity:1"
         d="m 368.41324,18.737175 c -21.81126,0.09437 -41.61506,13.243096 -50.8553,33.765363 -6.15485,-2.985229 -12.86383,-4.535968 -19.65661,-4.543497 -22.15706,0.06281 -41.20448,16.330126 -45.54656,38.898718 -24.55185,1.474025 -43.76978,22.520901 -43.8886,48.065411 0.0999,13.4912 5.61878,26.32624 15.2247,35.4074 10.73569,-16.73266 29.4496,-27.85083 50.80747,-27.85083 26.37676,0 48.73186,16.93944 56.96111,40.50886 4.74708,-4.99267 6.37427,12.70718 8.66373,6.10531 5.42834,2.33173 11.23233,3.57583 17.10587,3.66668 5.48421,-0.10096 10.90814,-1.20733 16.02182,-3.26813 8.75602,10.11884 23.22675,-7.765 36.32486,-7.66764 25.72769,0.003 46.58519,-21.66065 46.5828,-48.38425 -0.0107,-20.99616 -13.05818,-39.588468 -32.29868,-46.024837 0.59903,-3.328746 0.91907,-6.705172 0.95652,-10.091348 10e-4,-32.357072 -25.25191,-58.588099 -56.40313,-58.58721 z"
         sodipodi:nodetypes="ccccccsccccccccc" /><path
         style="fill:#ffff00;fill-opacity:1;stroke:#baba28;stroke-width:7;stroke-dasharray:none;stroke-opacity:1"
         d="m 251.1762,301.61319 h -77.67296 c 0,0 -30.26219,62.54186 -26.22723,63.5506 4.03495,1.00874 22.19227,0 22.19227,0 v 51.44573 l 11.09614,-1.51311 c 0,0 4.03496,69.09868 34.29715,74.14237 -15.1311,-85.74288 20.17479,-106.92641 20.17479,-106.92641 l -21.46222,5.75079 c 0,0 15.40979,-47.10912 28.5234,-51.14408 13.11362,-4.03496 -19.39528,-5.19695 -19.39528,-5.19695 z"
         id="path9"
         sodipodi:nodetypes="ccsccccccscc" /><path
         d="m 153.41811,124.65647 c -38.98742,0 -70.591608,31.60419 -70.591608,70.5916 0,2.6478 0.178348,5.25545 0.462316,7.82758 -25.213846,8.21388 -43.458161,31.87582 -43.458161,59.83069 0,34.76712 28.188226,62.95535 62.955343,62.95535 13.66424,0 26.28385,-4.4015 36.60305,-11.79716 6.80049,13.32986 20.62814,22.47836 36.619,22.47836 15.93553,0 29.72965,-9.08018 36.55524,-22.33489 5.98813,14.30933 20.10491,24.35953 36.58711,24.35953 16.84147,0 31.2008,-10.50805 36.95379,-25.31605 6.18246,8.10743 15.91151,13.35949 26.89431,13.35949 14.29871,0 26.49742,-8.8741 31.45375,-21.41024 6.18665,8.04547 15.88097,13.24787 26.81461,13.24787 14.92241,0 27.57528,-9.66162 32.07551,-23.06821 1.83772,0.26348 3.701,0.4464 5.61162,0.4464 21.70432,0 39.29726,-17.59295 39.29726,-39.29728 0,-21.70433 -17.59293,-39.29727 -39.29726,-39.29727 -1.85517,0 -3.6655,0.18179 -5.4522,0.43041 -0.90041,-22.9188 -19.71285,-41.2422 -42.85236,-41.2422 -10.69553,0 -20.44544,3.94087 -27.96244,10.41018 -7.03739,-25.55834 -30.39375,-44.35091 -58.18866,-44.35091 -23.25736,0 -43.40744,13.16135 -53.50168,32.42622 -8.73651,-29.06611 -35.66641,-50.24948 -67.57855,-50.24948 z"
         style="baseline-shift:baseline;display:inline;overflow:visible;vector-effect:none;fill:#b3b3b3;fill-opacity:1;stroke:#ffffff;stroke-width:8.16236;enable-background:accumulate;stop-color:#000000;stop-opacity:1"
         id="path2"
         sodipodi:nodetypes="sscsscscscscscssscscscss" /><path
         d="m 293.53225,417.08124 c -15.79761,15.10848 -32.94644,31.67887 -36.73905,42.21835 -3.78915,10.54073 1.68191,22.1577 12.22139,25.9503 10.54073,3.78914 22.15769,-1.68192 25.9503,-12.2214 3.78914,-10.54072 1.36817,-34.91956 -1.43264,-55.94725 z"
         style="baseline-shift:baseline;display:inline;overflow:visible;vector-effect:none;fill:#3fa9f5;fill-opacity:1;stroke-width:8.1258;enable-background:accumulate;stop-color:#000000"
         id="path4-8"
         sodipodi:nodetypes="ccccc" /><path
         d="m 365.15277,413.04628 c -15.79761,15.10848 -32.94644,31.67887 -36.73905,42.21835 -3.78915,10.54073 1.68191,22.1577 12.22139,25.9503 10.54073,3.78914 22.15769,-1.68192 25.9503,-12.2214 3.78914,-10.54072 1.36817,-34.91956 -1.43264,-55.94725 z"
         style="baseline-shift:baseline;display:inline;overflow:visible;vector-effect:none;fill:#3fa9f5;fill-opacity:1;stroke-width:8.1258;enable-background:accumulate;stop-color:#000000"
         id="path1"
         sodipodi:nodetypes="ccccc" /><path
         d="m 412.56354,335.37332 c -15.79761,15.10848 -32.94644,31.67887 -36.73905,42.21835 -3.78915,10.54073 1.68191,22.1577 12.22139,25.9503 10.54073,3.78914 22.15769,-1.68192 25.9503,-12.2214 3.78914,-10.54072 1.36817,-34.91956 -1.43264,-55.94725 z"
         style="baseline-shift:baseline;display:inline;overflow:visible;vector-effect:none;fill:#3fa9f5;fill-opacity:1;stroke-width:8.1258;enable-background:accumulate;stop-color:#000000"
         id="path3"
         sodipodi:nodetypes="ccccc" /><path
         d="m 341.95176,351.51316 c -15.79761,15.10848 -32.94644,31.67887 -36.73905,42.21835 -3.78915,10.54073 1.68191,22.1577 12.22139,25.9503 10.54073,3.78914 22.15769,-1.68192 25.9503,-12.2214 3.78914,-10.54072 1.36817,-34.91956 -1.43264,-55.94725 z"
         style="baseline-shift:baseline;display:inline;overflow:visible;vector-effect:none;fill:#3fa9f5;fill-opacity:1;stroke-width:8.1258;enable-background:accumulate;stop-color:#000000"
         id="path4"
         sodipodi:nodetypes="ccccc" /><path
         d="m 283.44485,342.4345 c -15.79761,15.10848 -32.94644,31.67887 -36.73905,42.21835 -3.78915,10.54073 1.68191,22.1577 12.22139,25.9503 10.54073,3.78914 22.15769,-1.68192 25.9503,-12.2214 3.78914,-10.54072 1.36817,-34.91956 -1.43264,-55.94725 z"
         style="baseline-shift:baseline;display:inline;overflow:visible;vector-effect:none;fill:#3fa9f5;fill-opacity:1;stroke-width:8.1258;enable-background:accumulate;stop-color:#000000"
         id="path5"
         sodipodi:nodetypes="ccccc" /><path
         d="m 127.09019,342.4345 c -15.79761,15.10848 -32.946443,31.67887 -36.739053,42.21835 -3.78915,10.54073 1.68191,22.1577 12.221393,25.9503 10.54073,3.78914 22.15769,-1.68192 25.9503,-12.2214 3.78914,-10.54072 1.36817,-34.91956 -1.43264,-55.94725 z"
         style="baseline-shift:baseline;display:inline;overflow:visible;vector-effect:none;fill:#3fa9f5;fill-opacity:1;stroke-width:8.1258;enable-background:accumulate;stop-color:#000000"
         id="path6"
         sodipodi:nodetypes="ccccc" /><path
         d="M 72.618243,409.01132 C 56.820633,424.1198 39.6718,440.69019 35.87919,451.22967 c -3.78915,10.54073 1.68191,22.1577 12.221393,25.9503 10.54073,3.78914 22.15769,-1.68192 25.9503,-12.2214 3.78914,-10.54072 1.36817,-34.91956 -1.43264,-55.94725 z"
         style="baseline-shift:baseline;display:inline;overflow:visible;vector-effect:none;fill:#3fa9f5;fill-opacity:1;stroke-width:8.1258;enable-background:accumulate;stop-color:#000000"
         id="path7"
         sodipodi:nodetypes="ccccc" /><path
         d="m 138.18633,417.08124 c -15.79761,15.10848 -32.94645,31.67887 -36.73906,42.21835 -3.789145,10.54073 1.68191,22.1577 12.2214,25.9503 10.54073,3.78914 22.15769,-1.68192 25.9503,-12.2214 3.78914,-10.54072 1.36817,-34.91956 -1.43264,-55.94725 z"
         style="baseline-shift:baseline;display:inline;overflow:visible;vector-effect:none;fill:#3fa9f5;fill-opacity:1;stroke-width:8.1258;enable-background:accumulate;stop-color:#000000"
         id="path8"
         sodipodi:nodetypes="ccccc" /></g></g></svg>
