<?xml version="1.0" encoding="UTF-8" standalone="no"?>
<!-- Created with Inkscape (http://www.inkscape.org/) -->

<svg
   version="1.1"
   id="svg1"
   width="512"
   height="512"
   viewBox="0 0 512 512"
   sodipodi:docname="21.svg"
   inkscape:version="1.2.2 (b0a8486541, 2022-12-01)"
   xml:space="preserve"
   xmlns:inkscape="http://www.inkscape.org/namespaces/inkscape"
   xmlns:sodipodi="http://sodipodi.sourceforge.net/DTD/sodipodi-0.dtd"
   xmlns:xlink="http://www.w3.org/1999/xlink"
   xmlns="http://www.w3.org/2000/svg"
   xmlns:svg="http://www.w3.org/2000/svg"><defs
     id="defs1"><linearGradient
       id="linearGradient1"
       inkscape:collect="always"><stop
         style="stop-color:#dfdfdf;stop-opacity:0.1048035;"
         offset="0.54817277"
         id="stop1" /><stop
         style="stop-color:#a9a9a9;stop-opacity:0.81877726;"
         offset="1"
         id="stop2" /></linearGradient><radialGradient
       inkscape:collect="always"
       xlink:href="#linearGradient1"
       id="radialGradient2"
       cx="-24.209755"
       cy="306.65689"
       fx="-24.209755"
       fy="306.65689"
       r="221.92274"
       gradientUnits="userSpaceOnUse"
       gradientTransform="matrix(1.0318182,0,0,1.0318182,284.22618,-53.115595)" /></defs><sodipodi:namedview
     id="namedview1"
     pagecolor="#ffffff"
     bordercolor="#000000"
     borderopacity="0.25"
     inkscape:showpageshadow="2"
     inkscape:pageopacity="0.0"
     inkscape:pagecheckerboard="0"
     inkscape:deskcolor="#d1d1d1"
     showgrid="false"
     inkscape:zoom="0.49566798"
     inkscape:cx="35.305892"
     inkscape:cy="306.65689"
     inkscape:window-width="1440"
     inkscape:window-height="560"
     inkscape:window-x="0"
     inkscape:window-y="0"
     inkscape:window-maximized="0"
     inkscape:current-layer="g1" /><g
     inkscape:groupmode="layer"
     inkscape:label="Image"
     id="g1"><g
       id="g120"
       transform="translate(-3.2460938,-7.2985535)"><path
         id="path28"
         style="baseline-shift:baseline;display:inline;overflow:visible;opacity:1;vector-effect:none;fill:#999999;fill-opacity:1;stroke-width:7.18725;enable-background:accumulate;stop-color:#000000;stop-opacity:1"
         d="m 363.28504,102.57976 c -19.2056,0.0832 -36.64356,11.66103 -44.77993,29.73163 -5.41957,-2.6286 -11.32708,-3.99409 -17.30836,-4.00072 -19.51011,0.0553 -36.28204,14.37928 -40.10541,34.25175 -21.6188,1.29793 -38.54089,19.83046 -38.64551,42.32334 0.088,11.8795 4.94755,23.18123 13.40591,31.17751 9.45316,-14.73372 25.93143,-24.52368 44.73782,-24.52368 23.22571,0 35.12639,36.04319 42.37256,56.79692 4.17998,-4.39623 7.38924,-9.68432 9.40519,-15.4975 4.77985,2.05317 9.89047,3.14864 15.06234,3.22864 4.82905,-0.0889 9.605,-1.06311 14.10778,-2.87771 7.71,8.91001 26.45933,-7.09129 37.99268,-7.00556 22.65417,0.003 41.01997,-19.07301 41.01786,-42.6041 -0.01,-18.48789 -11.49819,-34.8591 -28.44017,-40.52654 0.52747,-2.93109 0.80928,-5.90415 0.84226,-8.88581 7.3e-4,-28.49158 -22.23523,-51.58895 -49.66502,-51.58817 z"
         sodipodi:nodetypes="ccccccsccccccccc" /><path
         d="m 173.97401,195.84556 c -34.32984,0 -62.15848,27.82864 -62.15848,62.15847 0,2.3315 0.15704,4.62762 0.40708,6.89247 -22.201699,7.23261 -38.266489,28.06781 -38.266489,52.6831 0,30.61371 24.820761,55.43446 55.434469,55.43446 12.03187,0 23.14389,-3.87567 32.23032,-10.38782 5.98809,11.73743 18.16383,19.79301 32.24436,19.79301 14.03183,0 26.17804,-7.99542 32.18823,-19.66667 5.27277,12.59988 17.70311,21.44945 32.21628,21.44945 14.82953,0 27.47344,-9.25272 32.53915,-22.2917 5.44388,7.13888 14.01067,11.7635 23.68142,11.7635 12.59053,0 23.33195,-7.81396 27.69617,-18.85249 5.44758,7.08433 13.98377,11.66524 23.61124,11.66524 13.13972,0 24.28104,-8.5074 28.24366,-20.3124 1.61817,0.23201 3.25886,0.39307 4.94123,0.39307 19.11145,0 34.60267,-15.49122 34.60267,-34.60268 0,-19.11146 -15.49122,-34.60267 -34.60267,-34.60267 -1.63354,0 -3.22762,0.16007 -4.80087,0.37899 -0.79284,-20.18085 -17.35787,-36.31527 -37.73306,-36.31527 -9.4178,0 -18.00294,3.47009 -24.62194,9.16655 -6.19668,-22.50505 -26.7628,-39.05259 -51.23723,-39.05259 -20.47895,0 -38.22183,11.58905 -47.11017,28.55247 -7.69282,-25.59377 -31.40557,-44.24651 -59.50538,-44.24651 z"
         style="baseline-shift:baseline;display:inline;overflow:visible;opacity:1;vector-effect:none;fill:#b3b3b3;fill-opacity:1;stroke:#ffffff;stroke-width:7.18725;enable-background:accumulate;stop-color:#000000;stop-opacity:1"
         id="path2"
         sodipodi:nodetypes="sscsscscscscscssscscscss" /><circle
         style="opacity:1;fill:url(#radialGradient2);stroke:none;stroke-width:8.25454"
         id="path1"
         cx="259.24609"
         cy="263.29855"
         r="228.98393" /></g></g></svg>
