<?xml version="1.0" encoding="UTF-8" standalone="no"?>
<!-- Created with Inkscape (http://www.inkscape.org/) -->

<svg
   version="1.1"
   id="svg68"
   width="512"
   height="512"
   viewBox="0 0 512 512"
   sodipodi:docname="27.svg"
   inkscape:version="1.2.2 (b0a8486541, 2022-12-01)"
   xmlns:inkscape="http://www.inkscape.org/namespaces/inkscape"
   xmlns:sodipodi="http://sodipodi.sourceforge.net/DTD/sodipodi-0.dtd"
   xmlns="http://www.w3.org/2000/svg"
   xmlns:svg="http://www.w3.org/2000/svg">
  <defs
     id="defs72" />
  <sodipodi:namedview
     id="namedview70"
     pagecolor="#ffffff"
     bordercolor="#000000"
     borderopacity="0.25"
     inkscape:showpageshadow="2"
     inkscape:pageopacity="0.0"
     inkscape:pagecheckerboard="0"
     inkscape:deskcolor="#d1d1d1"
     showgrid="false"
     inkscape:zoom="1.4831565"
     inkscape:cx="248.45659"
     inkscape:cy="217.10454"
     inkscape:window-width="1920"
     inkscape:window-height="1000"
     inkscape:window-x="0"
     inkscape:window-y="0"
     inkscape:window-maximized="1"
     inkscape:current-layer="g74" />
  <g
     inkscape:groupmode="layer"
     inkscape:label="Image"
     id="g74">
    <g
       id="g126"
       transform="matrix(9.8798716,0,0,9.8798716,-38.690389,9.8866442)">
      <path
         id="path28"
         style="baseline-shift:baseline;display:inline;overflow:visible;vector-effect:none;fill:#999999;fill-opacity:1;stroke-width:0.895584;enable-background:accumulate;stop-color:#000000"
         d="m 43.263719,0.38559085 c -2.393159,0.01037 -4.566058,1.45305185 -5.579908,3.70477585 -0.675319,-0.32754 -1.411435,-0.497693 -2.156744,-0.498519 -2.431106,0.0069 -4.521013,1.79176 -4.997426,4.26802 -2.693862,0.161731 -4.802477,2.4710163 -4.815517,5.2737933 0.01097,1.480271 0.616505,2.888552 1.670477,3.884947 1.177931,-1.835929 3.231245,-3.055833 5.57466,-3.055833 2.894091,0 4.377001,4.491245 5.279928,7.07731 0.520855,-0.547804 0.920751,-1.206735 1.171953,-1.931101 0.595604,0.25584 1.232426,0.392346 1.876877,0.402313 0.601737,-0.01107 1.196855,-0.132472 1.757935,-0.358584 0.960722,1.110255 3.297019,-0.883625 4.734165,-0.872945 2.822875,4.16e-4 5.111384,-2.376631 5.111124,-5.308777 -0.0011,-2.30373 -1.432761,-4.3436983 -3.543854,-5.0499063 0.06573,-0.36523 0.100842,-0.735699 0.104952,-1.107237 9.2e-5,-3.550251 -2.770674,-6.42835385 -6.188622,-6.42825685 z"
         sodipodi:nodetypes="ccccccsccccccccc" />
      <path
         d="m 19.674183,12.007187 c -4.277745,0 -7.745399,3.467649 -7.745399,7.745399 0,0.290521 0.01955,0.576637 0.05075,0.858848 -2.7664945,0.901237 -4.7682848,3.497458 -4.7682848,6.5647 0,3.814689 3.0928508,6.907539 6.9075398,6.907539 1.499259,0 2.883897,-0.482935 4.016133,-1.294398 0.746158,1.462565 2.263343,2.466352 4.017882,2.466352 1.748465,0 3.261973,-0.996287 4.010884,-2.450608 0.657027,1.570034 2.205938,2.672757 4.014384,2.672757 1.84787,0 3.42339,-1.152958 4.054619,-2.777708 0.678347,0.889557 1.745829,1.465816 2.950875,1.465816 1.568873,0 2.90733,-0.973675 3.451143,-2.349155 0.678807,0.882755 1.742482,1.453571 2.942134,1.453571 1.637304,0 3.025596,-1.060086 3.519363,-2.531074 0.201637,0.02889 0.406083,0.04897 0.615716,0.04897 2.381426,0 4.311745,-1.930319 4.311745,-4.311745 0,-2.381432 -1.930319,-4.311745 -4.311745,-4.311745 -0.203554,0 -0.402184,0.01993 -0.598222,0.04724 -0.0988,-2.514677 -2.162919,-4.525144 -4.701811,-4.525144 -1.173529,0 -2.243301,0.432399 -3.068073,1.14222 -0.772156,-2.804296 -3.334841,-4.866238 -6.384535,-4.866238 -2.551823,0 -4.762717,1.444078 -5.870273,3.557849 -0.958578,-3.189174 -3.913362,-5.513437 -7.4148,-5.513437 z"
         style="baseline-shift:baseline;display:inline;overflow:visible;vector-effect:none;fill:#b3b3b3;fill-opacity:1;stroke:#ffffff;stroke-width:0.895584;enable-background:accumulate;stop-color:#000000"
         id="path2"
         sodipodi:nodetypes="sscsscscscscscssscscscss" />
      <path
         style="fill:#717171;fill-opacity:1"
         d="m 41.349117,37.467721 4.94468,-0.05959 -2.591292,6.306346 z"
         id="path2079"
         sodipodi:nodetypes="cccc" />
      <path
         style="fill:#717171;fill-opacity:1"
         d="m 29.906924,37.527316 4.94468,-0.05959 -2.591292,6.306346 z"
         id="path389"
         sodipodi:nodetypes="cccc" />
      <path
         style="fill:#717171;fill-opacity:1"
         d="m 35.330047,43.188818 4.94468,-0.05959 -2.591292,6.306346 z"
         id="path391"
         sodipodi:nodetypes="cccc" />
      <circle
         style="fill:#666666;fill-opacity:1;stroke-width:0.864"
         id="path404"
         cx="11.740167"
         cy="40.584026"
         r="2.2749674" />
      <circle
         style="fill:#666666;fill-opacity:1;stroke-width:0.864"
         id="path404-3"
         cx="17.878426"
         cy="46.781883"
         r="2.2749674" />
      <circle
         style="fill:#666666;fill-opacity:1;stroke-width:0.864"
         id="path404-6"
         cx="23.063171"
         cy="40.405247"
         r="2.2749674" />
    </g>
  </g>
</svg>
