<?xml version="1.0" encoding="UTF-8" standalone="no"?>
<!-- Created with Inkscape (http://www.inkscape.org/) -->

<svg
   version="1.1"
   id="svg1"
   width="512"
   height="512"
   viewBox="0 0 512 512"
   sodipodi:docname="30.svg"
   inkscape:version="1.2.2 (b0a8486541, 2022-12-01)"
   xml:space="preserve"
   xmlns:inkscape="http://www.inkscape.org/namespaces/inkscape"
   xmlns:sodipodi="http://sodipodi.sourceforge.net/DTD/sodipodi-0.dtd"
   xmlns:xlink="http://www.w3.org/1999/xlink"
   xmlns="http://www.w3.org/2000/svg"
   xmlns:svg="http://www.w3.org/2000/svg"><defs
     id="defs1"><linearGradient
       id="linearGradient5"
       inkscape:collect="always"><stop
         style="stop-color:#15446a;stop-opacity:1;"
         offset="0"
         id="stop5" /><stop
         style="stop-color:#0b314c;stop-opacity:1;"
         offset="1"
         id="stop6" /></linearGradient><radialGradient
       inkscape:collect="always"
       xlink:href="#linearGradient5"
       id="radialGradient6"
       cx="19.972033"
       cy="129.81818"
       fx="19.972033"
       fy="129.81818"
       r="118.40559"
       gradientUnits="userSpaceOnUse"
       gradientTransform="matrix(1.9967651,0,0,1.9967651,219.54667,-8.076852)" /><filter
       inkscape:collect="always"
       style="color-interpolation-filters:sRGB"
       id="filter6"
       x="-0.3"
       y="-0.3"
       width="1.6"
       height="1.6"><feGaussianBlur
         inkscape:collect="always"
         stdDeviation="29.601397"
         id="feGaussianBlur6" /></filter><filter
       inkscape:collect="always"
       style="color-interpolation-filters:sRGB"
       id="filter13"
       x="-0.16811865"
       y="-0.079552354"
       width="1.3362373"
       height="1.1591047"><feGaussianBlur
         inkscape:collect="always"
         stdDeviation="7.8255615"
         id="feGaussianBlur13" /></filter></defs><sodipodi:namedview
     id="namedview1"
     pagecolor="#ffffff"
     bordercolor="#000000"
     borderopacity="0.25"
     inkscape:showpageshadow="2"
     inkscape:pageopacity="0.0"
     inkscape:pagecheckerboard="0"
     inkscape:deskcolor="#d1d1d1"
     showgrid="false"
     inkscape:zoom="0.70098038"
     inkscape:cx="283.17483"
     inkscape:cy="350.93707"
     inkscape:window-width="1440"
     inkscape:window-height="710"
     inkscape:window-x="0"
     inkscape:window-y="0"
     inkscape:window-maximized="0"
     inkscape:current-layer="g1" /><g
     inkscape:groupmode="layer"
     inkscape:label="Image"
     id="g1"><g
       id="g104"
       transform="translate(-7.146559,9.2203505)"><circle
         style="fill:url(#radialGradient6);stroke:none;stroke-width:15.9741"
         id="circle5"
         cx="259.42615"
         cy="251.13956"
         r="236.42813" /><circle
         style="opacity:0.3;fill:#f9fddd;fill-opacity:1;stroke:none;stroke-width:8;filter:url(#filter6)"
         id="circle6"
         cx="313.84616"
         cy="195.44055"
         r="118.40559" /><circle
         style="fill:#042944;fill-opacity:1;stroke:none;stroke-width:8"
         id="path3"
         cx="313.84616"
         cy="195.44055"
         r="118.40559" /><path
         id="circle4"
         style="fill:#f9fddd;fill-opacity:1;stroke:none;stroke-width:8"
         d="M 321.04883,313.33008 A 118.40559,118.40559 0 0 0 432.25195,195.44141 118.40559,118.40559 0 0 0 320.53711,77.242188 209.70628,209.70628 0 0 1 357.38477,195.88867 209.70628,209.70628 0 0 1 321.04883,313.33008 Z" /><path
         sodipodi:type="star"
         style="opacity:1;fill:#ffffff;fill-opacity:1;stroke:none;stroke-width:8"
         id="path6"
         inkscape:flatsided="false"
         sodipodi:sides="5"
         sodipodi:cx="137.18861"
         sodipodi:cy="355.07639"
         sodipodi:r1="11.806996"
         sodipodi:r2="5.9034982"
         sodipodi:arg1="1.3089969"
         sodipodi:arg2="1.9373155"
         inkscape:rounded="0"
         inkscape:randomized="0"
         d="m 140.24449,366.48107 -5.1715,-5.89329 -7.78656,0.91916 4.00678,-6.73952 -3.28036,-7.12142 7.64783,1.72804 5.75918,-5.32044 0.71984,7.80751 6.83973,3.83321 -7.20294,3.09726 z"
         inkscape:transform-center-x="-0.94431746"
         inkscape:transform-center-y="0.19095101"
         transform="translate(29.253453,45.393289)" /><path
         sodipodi:type="star"
         style="opacity:1;fill:#ffffff;fill-opacity:1;stroke:none;stroke-width:8"
         id="path7"
         inkscape:flatsided="false"
         sodipodi:sides="5"
         sodipodi:cx="137.18861"
         sodipodi:cy="355.07639"
         sodipodi:r1="11.806996"
         sodipodi:r2="5.9034982"
         sodipodi:arg1="1.3089969"
         sodipodi:arg2="1.9373155"
         inkscape:rounded="0"
         inkscape:randomized="0"
         d="m 140.24449,366.48107 -5.1715,-5.89329 -7.78656,0.91916 4.00678,-6.73952 -3.28036,-7.12142 7.64783,1.72804 5.75918,-5.32044 0.71984,7.80751 6.83973,3.83321 -7.20294,3.09726 z"
         inkscape:transform-center-x="-0.94431746"
         inkscape:transform-center-y="0.19095101"
         transform="translate(135.17113,96.839017)" /><path
         sodipodi:type="star"
         style="opacity:1;fill:#ffffff;fill-opacity:1;stroke:none;stroke-width:8"
         id="path8"
         inkscape:flatsided="false"
         sodipodi:sides="5"
         sodipodi:cx="137.18861"
         sodipodi:cy="355.07639"
         sodipodi:r1="11.806996"
         sodipodi:r2="5.9034982"
         sodipodi:arg1="1.3089969"
         sodipodi:arg2="1.9373155"
         inkscape:rounded="0"
         inkscape:randomized="0"
         d="m 140.24449,366.48107 -5.1715,-5.89329 -7.78656,0.91916 4.00678,-6.73952 -3.28036,-7.12142 7.64783,1.72804 5.75918,-5.32044 0.71984,7.80751 6.83973,3.83321 -7.20294,3.09726 z"
         inkscape:transform-center-x="0.11838557"
         inkscape:transform-center-y="-1.0142836"
         transform="rotate(-22.859424,293.95513,-137.76058)" /><path
         sodipodi:type="star"
         style="opacity:1;fill:#ffffff;fill-opacity:1;stroke:none;stroke-width:8"
         id="path9"
         inkscape:flatsided="false"
         sodipodi:sides="5"
         sodipodi:cx="137.18861"
         sodipodi:cy="355.07639"
         sodipodi:r1="11.806996"
         sodipodi:r2="5.9034982"
         sodipodi:arg1="1.3089969"
         sodipodi:arg2="1.9373155"
         inkscape:rounded="0"
         inkscape:randomized="0"
         d="m 140.24449,366.48107 -5.1715,-5.89329 -7.78656,0.91916 4.00678,-6.73952 -3.28036,-7.12142 7.64783,1.72804 5.75918,-5.32044 0.71984,7.80751 6.83973,3.83321 -7.20294,3.09726 z"
         inkscape:transform-center-x="0.41799091"
         inkscape:transform-center-y="0.72250723"
         transform="rotate(21.578484,232.80698,706.2456)" /><path
         sodipodi:type="star"
         style="opacity:1;fill:#ffffff;fill-opacity:1;stroke:none;stroke-width:8"
         id="path10"
         inkscape:flatsided="false"
         sodipodi:sides="5"
         sodipodi:cx="137.18861"
         sodipodi:cy="355.07639"
         sodipodi:r1="11.806996"
         sodipodi:r2="5.9034982"
         sodipodi:arg1="1.3089969"
         sodipodi:arg2="1.9373155"
         inkscape:rounded="0"
         inkscape:randomized="0"
         d="m 140.24449,366.48107 -5.1715,-5.89329 -7.78656,0.91916 4.00678,-6.73952 -3.28036,-7.12142 7.64783,1.72804 5.75918,-5.32044 0.71984,7.80751 6.83973,3.83321 -7.20294,3.09726 z"
         inkscape:transform-center-x="-113.5696"
         inkscape:transform-center-y="227.68895"
         transform="rotate(21.578484,962.72152,398.18759)" /><path
         sodipodi:type="star"
         style="opacity:1;fill:#ffffff;fill-opacity:1;stroke:none;stroke-width:8"
         id="path11"
         inkscape:flatsided="false"
         sodipodi:sides="5"
         sodipodi:cx="137.18861"
         sodipodi:cy="355.07639"
         sodipodi:r1="11.806996"
         sodipodi:r2="5.9034982"
         sodipodi:arg1="1.3089969"
         sodipodi:arg2="1.9373155"
         inkscape:rounded="0"
         inkscape:randomized="0"
         d="m 140.24449,366.48107 -5.1715,-5.89329 -7.78656,0.91916 4.00678,-6.73952 -3.28036,-7.12142 7.64783,1.72804 5.75918,-5.32044 0.71984,7.80751 6.83973,3.83321 -7.20294,3.09726 z"
         inkscape:transform-center-x="-36.886236"
         inkscape:transform-center-y="250.75597"
         transform="rotate(39.732028,497.54201,287.61638)" /><path
         sodipodi:type="star"
         style="opacity:1;fill:#ffffff;fill-opacity:1;stroke:none;stroke-width:8"
         id="path12"
         inkscape:flatsided="false"
         sodipodi:sides="5"
         sodipodi:cx="137.18861"
         sodipodi:cy="355.07639"
         sodipodi:r1="11.806996"
         sodipodi:r2="5.9034982"
         sodipodi:arg1="1.3089969"
         sodipodi:arg2="1.9373155"
         inkscape:rounded="0"
         inkscape:randomized="0"
         d="m 140.24449,366.48107 -5.1715,-5.89329 -7.78656,0.91916 4.00678,-6.73952 -3.28036,-7.12142 7.64783,1.72804 5.75918,-5.32044 0.71984,7.80751 6.83973,3.83321 -7.20294,3.09726 z"
         inkscape:transform-center-x="-182.87382"
         inkscape:transform-center-y="177.41555"
         transform="rotate(2.4458685,5823.7173,-404.80181)" /><path
         id="path13"
         style="opacity:0.99;fill:#f9fddd;fill-opacity:1;stroke:none;stroke-width:8;filter:url(#filter13)"
         d="M 321.04883,313.33008 A 118.40559,118.40559 0 0 0 432.25195,195.44141 118.40559,118.40559 0 0 0 320.53711,77.242188 209.70628,209.70628 0 0 1 357.38477,195.88867 209.70628,209.70628 0 0 1 321.04883,313.33008 Z" /><path
         sodipodi:type="star"
         style="opacity:1;fill:#ffffff;fill-opacity:1;stroke:none;stroke-width:8"
         id="path1"
         inkscape:flatsided="false"
         sodipodi:sides="5"
         sodipodi:cx="137.18861"
         sodipodi:cy="355.07639"
         sodipodi:r1="11.806996"
         sodipodi:r2="5.9034982"
         sodipodi:arg1="1.3089969"
         sodipodi:arg2="1.9373155"
         inkscape:rounded="0"
         inkscape:randomized="0"
         d="m 140.24449,366.48107 -5.1715,-5.89329 -7.78656,0.91916 4.00678,-6.73952 -3.28036,-7.12142 7.64783,1.72804 5.75918,-5.32044 0.71984,7.80751 6.83973,3.83321 -7.20294,3.09726 z"
         inkscape:transform-center-x="-36.886236"
         inkscape:transform-center-y="250.75597"
         transform="rotate(39.732028,620.79986,410.36253)" /><path
         sodipodi:type="star"
         style="opacity:1;fill:#ffffff;fill-opacity:1;stroke:none;stroke-width:8"
         id="path2"
         inkscape:flatsided="false"
         sodipodi:sides="5"
         sodipodi:cx="137.18861"
         sodipodi:cy="355.07639"
         sodipodi:r1="11.806996"
         sodipodi:r2="5.9034982"
         sodipodi:arg1="1.3089969"
         sodipodi:arg2="1.9373155"
         inkscape:rounded="0"
         inkscape:randomized="0"
         d="m 140.24449,366.48107 -5.1715,-5.89329 -7.78656,0.91916 4.00678,-6.73952 -3.28036,-7.12142 7.64783,1.72804 5.75918,-5.32044 0.71984,7.80751 6.83973,3.83321 -7.20294,3.09726 z"
         inkscape:transform-center-x="-36.886236"
         inkscape:transform-center-y="250.75597"
         transform="rotate(39.732028,368.7575,263.13331)" /><path
         sodipodi:type="star"
         style="opacity:1;fill:#ffffff;fill-opacity:1;stroke:none;stroke-width:8"
         id="path4"
         inkscape:flatsided="false"
         sodipodi:sides="5"
         sodipodi:cx="137.18861"
         sodipodi:cy="355.07639"
         sodipodi:r1="11.806996"
         sodipodi:r2="5.9034982"
         sodipodi:arg1="1.3089969"
         sodipodi:arg2="1.9373155"
         inkscape:rounded="0"
         inkscape:randomized="0"
         d="m 140.24449,366.48107 -5.1715,-5.89329 -7.78656,0.91916 4.00678,-6.73952 -3.28036,-7.12142 7.64783,1.72804 5.75918,-5.32044 0.71984,7.80751 6.83973,3.83321 -7.20294,3.09726 z"
         inkscape:transform-center-x="-36.886236"
         inkscape:transform-center-y="250.75597"
         transform="rotate(39.732028,270.09655,204.09386)" /><path
         sodipodi:type="star"
         style="opacity:1;fill:#ffffff;fill-opacity:1;stroke:none;stroke-width:8"
         id="path5"
         inkscape:flatsided="false"
         sodipodi:sides="5"
         sodipodi:cx="137.18861"
         sodipodi:cy="355.07639"
         sodipodi:r1="11.806996"
         sodipodi:r2="5.9034982"
         sodipodi:arg1="1.3089969"
         sodipodi:arg2="1.9373155"
         inkscape:rounded="0"
         inkscape:randomized="0"
         d="m 140.24449,366.48107 -5.1715,-5.89329 -7.78656,0.91916 4.00678,-6.73952 -3.28036,-7.12142 7.64783,1.72804 5.75918,-5.32044 0.71984,7.80751 6.83973,3.83321 -7.20294,3.09726 z"
         inkscape:transform-center-x="-36.886236"
         inkscape:transform-center-y="250.75597"
         transform="rotate(39.732028,307.46613,346.82659)" /><path
         sodipodi:type="star"
         style="opacity:1;fill:#ffffff;fill-opacity:1;stroke:none;stroke-width:8"
         id="path14"
         inkscape:flatsided="false"
         sodipodi:sides="5"
         sodipodi:cx="137.18861"
         sodipodi:cy="355.07639"
         sodipodi:r1="11.806996"
         sodipodi:r2="5.9034982"
         sodipodi:arg1="1.3089969"
         sodipodi:arg2="1.9373155"
         inkscape:rounded="0"
         inkscape:randomized="0"
         d="m 140.24449,366.48107 -5.1715,-5.89329 -7.78656,0.91916 4.00678,-6.73952 -3.28036,-7.12142 7.64783,1.72804 5.75918,-5.32044 0.71984,7.80751 6.83973,3.83321 -7.20294,3.09726 z"
         inkscape:transform-center-x="-36.886236"
         inkscape:transform-center-y="250.75597"
         transform="rotate(39.732028,217.20196,398.37883)" /><path
         sodipodi:type="star"
         style="opacity:1;fill:#ffffff;fill-opacity:1;stroke:none;stroke-width:8"
         id="path15"
         inkscape:flatsided="false"
         sodipodi:sides="5"
         sodipodi:cx="137.18861"
         sodipodi:cy="355.07639"
         sodipodi:r1="11.806996"
         sodipodi:r2="5.9034982"
         sodipodi:arg1="1.3089969"
         sodipodi:arg2="1.9373155"
         inkscape:rounded="0"
         inkscape:randomized="0"
         d="m 140.24449,366.48107 -5.1715,-5.89329 -7.78656,0.91916 4.00678,-6.73952 -3.28036,-7.12142 7.64783,1.72804 5.75918,-5.32044 0.71984,7.80751 6.83973,3.83321 -7.20294,3.09726 z"
         inkscape:transform-center-x="-36.886236"
         inkscape:transform-center-y="250.75597"
         transform="rotate(39.732028,108.13747,279.97307)" /><path
         sodipodi:type="star"
         style="opacity:1;fill:#ffffff;fill-opacity:1;stroke:none;stroke-width:8"
         id="path16"
         inkscape:flatsided="false"
         sodipodi:sides="5"
         sodipodi:cx="137.18861"
         sodipodi:cy="355.07639"
         sodipodi:r1="11.806996"
         sodipodi:r2="5.9034982"
         sodipodi:arg1="1.3089969"
         sodipodi:arg2="1.9373155"
         inkscape:rounded="0"
         inkscape:randomized="0"
         d="m 140.24449,366.48107 -5.1715,-5.89329 -7.78656,0.91916 4.00678,-6.73952 -3.28036,-7.12142 7.64783,1.72804 5.75918,-5.32044 0.71984,7.80751 6.83973,3.83321 -7.20294,3.09726 z"
         inkscape:transform-center-x="0.11838557"
         inkscape:transform-center-y="-1.0142836"
         transform="rotate(-22.859424,185.15312,-383.07292)" /><path
         sodipodi:type="star"
         style="opacity:1;fill:#ffffff;fill-opacity:1;stroke:none;stroke-width:8"
         id="path17"
         inkscape:flatsided="false"
         sodipodi:sides="5"
         sodipodi:cx="137.18861"
         sodipodi:cy="355.07639"
         sodipodi:r1="11.806996"
         sodipodi:r2="5.9034982"
         sodipodi:arg1="1.3089969"
         sodipodi:arg2="1.9373155"
         inkscape:rounded="0"
         inkscape:randomized="0"
         d="m 140.24449,366.48107 -5.1715,-5.89329 -7.78656,0.91916 4.00678,-6.73952 -3.28036,-7.12142 7.64783,1.72804 5.75918,-5.32044 0.71984,7.80751 6.83973,3.83321 -7.20294,3.09726 z"
         inkscape:transform-center-x="0.11838557"
         inkscape:transform-center-y="-1.0142836"
         transform="rotate(-22.859424,310.44767,-386.30507)" /></g></g></svg>
