<?xml version="1.0" encoding="UTF-8" standalone="no"?>
<!-- Created with Inkscape (http://www.inkscape.org/) -->

<svg
   version="1.1"
   id="svg1"
   width="512"
   height="512"
   viewBox="0 0 512 512"
   sodipodi:docname="34.svg"
   inkscape:version="1.2.2 (b0a8486541, 2022-12-01)"
   xml:space="preserve"
   xmlns:inkscape="http://www.inkscape.org/namespaces/inkscape"
   xmlns:sodipodi="http://sodipodi.sourceforge.net/DTD/sodipodi-0.dtd"
   xmlns:xlink="http://www.w3.org/1999/xlink"
   xmlns="http://www.w3.org/2000/svg"
   xmlns:svg="http://www.w3.org/2000/svg"><defs
     id="defs1"><linearGradient
       id="linearGradient5"
       inkscape:collect="always"><stop
         style="stop-color:#15446a;stop-opacity:1;"
         offset="0"
         id="stop5" /><stop
         style="stop-color:#0b314c;stop-opacity:1;"
         offset="1"
         id="stop6" /></linearGradient><radialGradient
       inkscape:collect="always"
       xlink:href="#linearGradient5"
       id="radialGradient6"
       cx="19.972033"
       cy="129.81818"
       fx="19.972033"
       fy="129.81818"
       r="118.40559"
       gradientUnits="userSpaceOnUse"
       gradientTransform="matrix(1.9967651,0,0,1.9967651,219.54667,-8.076852)" /><filter
       inkscape:collect="always"
       style="color-interpolation-filters:sRGB"
       id="filter6"
       x="-0.3"
       y="-0.3"
       width="1.6"
       height="1.6"><feGaussianBlur
         inkscape:collect="always"
         stdDeviation="29.601397"
         id="feGaussianBlur6" /></filter><filter
       inkscape:collect="always"
       style="color-interpolation-filters:sRGB"
       id="filter13"
       x="-0.16811865"
       y="-0.079552354"
       width="1.3362373"
       height="1.1591047"><feGaussianBlur
         inkscape:collect="always"
         stdDeviation="7.8255615"
         id="feGaussianBlur13" /></filter></defs><sodipodi:namedview
     id="namedview1"
     pagecolor="#ffffff"
     bordercolor="#000000"
     borderopacity="0.25"
     inkscape:showpageshadow="2"
     inkscape:pageopacity="0.0"
     inkscape:pagecheckerboard="0"
     inkscape:deskcolor="#d1d1d1"
     showgrid="false"
     inkscape:zoom="0.99133596"
     inkscape:cx="191.15618"
     inkscape:cy="220.91401"
     inkscape:window-width="1440"
     inkscape:window-height="710"
     inkscape:window-x="0"
     inkscape:window-y="0"
     inkscape:window-maximized="0"
     inkscape:current-layer="g1" /><g
     inkscape:groupmode="layer"
     inkscape:label="Image"
     id="g1"><g
       id="g32"
       transform="translate(-7.146559,9.2203505)"><circle
         style="fill:url(#radialGradient6);stroke:none;stroke-width:15.9741"
         id="circle5"
         cx="259.42615"
         cy="251.13956"
         r="236.42813" /><circle
         style="opacity:0.3;fill:#f9fddd;fill-opacity:1;stroke:none;stroke-width:8;filter:url(#filter6)"
         id="circle6"
         cx="313.84616"
         cy="195.44055"
         r="118.40559" /><circle
         style="fill:#042944;fill-opacity:1;stroke:none;stroke-width:8"
         id="path3"
         cx="313.84616"
         cy="195.44055"
         r="118.40559" /><path
         id="circle4"
         style="fill:#f9fddd;fill-opacity:1;stroke:none;stroke-width:8"
         d="M 321.04883,313.33008 A 118.40559,118.40559 0 0 0 432.25195,195.44141 118.40559,118.40559 0 0 0 320.53711,77.242188 209.70628,209.70628 0 0 1 357.38477,195.88867 209.70628,209.70628 0 0 1 321.04883,313.33008 Z" /><path
         id="path13"
         style="opacity:0.99;fill:#f9fddd;fill-opacity:1;stroke:none;stroke-width:8;filter:url(#filter13)"
         d="M 321.04883,313.33008 A 118.40559,118.40559 0 0 0 432.25195,195.44141 118.40559,118.40559 0 0 0 320.53711,77.242188 209.70628,209.70628 0 0 1 357.38477,195.88867 209.70628,209.70628 0 0 1 321.04883,313.33008 Z" /><path
         d="m 151.58974,143.19557 c -31.79807,0 -57.574398,25.77632 -57.574398,57.57439 0,2.15955 0.14546,4.28634 0.37707,6.38416 -20.56437,6.69923 -35.4444,25.99786 -35.4444,48.79781 0,28.356 22.99026,51.34627 51.346258,51.34627 11.14454,0 21.43707,-3.58985 29.8534,-9.62173 5.54647,10.8718 16.82427,18.33331 29.86639,18.33331 12.997,0 24.24746,-7.40578 29.81439,-18.21629 4.88392,11.67066 16.39754,19.86759 29.84039,19.86759 13.73588,0 25.44732,-8.57035 30.13945,-20.64773 5.04241,6.6124 12.9774,10.89597 21.93496,10.89597 11.662,0 21.61125,-7.2377 25.65362,-17.46216 5.04583,6.56187 12.95249,10.80495 21.86996,10.80495 12.17069,0 22.49035,-7.88 26.16073,-18.8144 1.49883,0.2149 3.01853,0.36408 4.57682,0.36408 17.70201,0 32.05079,-14.34877 32.05079,-32.05079 0,-17.70201 -14.34877,-32.05078 -32.05079,-32.05078 -1.51307,0 -2.98958,0.14826 -4.44681,0.35104 -0.73437,-18.69254 -16.07776,-33.63708 -34.95031,-33.63708 -8.72326,0 -16.67526,3.21417 -22.80611,8.49053 -5.73968,-20.84534 -24.7891,-36.17253 -47.45858,-36.17253 -18.96866,0 -35.40303,10.73437 -43.63588,26.44678 -7.12549,-23.70628 -29.08946,-40.9834 -55.11696,-40.9834 z"
         style="baseline-shift:baseline;display:inline;overflow:visible;vector-effect:none;fill:#d1d1d1;fill-opacity:1;stroke:none;stroke-width:6.65721;enable-background:accumulate;stop-color:#000000;stop-opacity:1"
         id="path2"
         sodipodi:nodetypes="sscsscscscscscssscscscss" /><g
         id="g2"
         style="fill:#0d395e;fill-opacity:1"
         transform="translate(0,-100)"><rect
           style="fill:#0d395e;fill-opacity:1;stroke:none;stroke-width:4.71053"
           id="rect1"
           width="29.253452"
           height="95.830276"
           x="194.68677"
           y="294.68677" /><rect
           style="fill:#0d395e;fill-opacity:1;stroke:none;stroke-width:4.71053"
           id="rect2"
           width="29.253452"
           height="95.830276"
           x="327.97516"
           y="-257.22864"
           transform="rotate(90)" /></g></g></g></svg>
