<?xml version="1.0" encoding="UTF-8" standalone="no"?>
<!-- Created with Inkscape (http://www.inkscape.org/) -->

<svg
   version="1.1"
   id="svg1"
   width="512"
   height="512"
   viewBox="0 0 512 512"
   sodipodi:docname="39.svg"
   inkscape:version="1.2.2 (b0a8486541, 2022-12-01)"
   xml:space="preserve"
   xmlns:inkscape="http://www.inkscape.org/namespaces/inkscape"
   xmlns:sodipodi="http://sodipodi.sourceforge.net/DTD/sodipodi-0.dtd"
   xmlns:xlink="http://www.w3.org/1999/xlink"
   xmlns="http://www.w3.org/2000/svg"
   xmlns:svg="http://www.w3.org/2000/svg"><defs
     id="defs1"><linearGradient
       id="linearGradient5"
       inkscape:collect="always"><stop
         style="stop-color:#15446a;stop-opacity:1;"
         offset="0"
         id="stop5" /><stop
         style="stop-color:#0b314c;stop-opacity:1;"
         offset="1"
         id="stop6" /></linearGradient><radialGradient
       inkscape:collect="always"
       xlink:href="#linearGradient5"
       id="radialGradient6"
       cx="19.972033"
       cy="129.81818"
       fx="19.972033"
       fy="129.81818"
       r="118.40559"
       gradientUnits="userSpaceOnUse"
       gradientTransform="matrix(1.9967651,0,0,1.9967651,215.54667,-2.076852)" /><filter
       inkscape:collect="always"
       style="color-interpolation-filters:sRGB"
       id="filter6"
       x="-0.3"
       y="-0.3"
       width="1.6"
       height="1.6"><feGaussianBlur
         inkscape:collect="always"
         stdDeviation="29.601397"
         id="feGaussianBlur6" /></filter><filter
       inkscape:collect="always"
       style="color-interpolation-filters:sRGB"
       id="filter13"
       x="-0.16811865"
       y="-0.079552354"
       width="1.3362373"
       height="1.1591047"><feGaussianBlur
         inkscape:collect="always"
         stdDeviation="7.8255615"
         id="feGaussianBlur13" /></filter></defs><sodipodi:namedview
     id="namedview1"
     pagecolor="#ffffff"
     bordercolor="#000000"
     borderopacity="0.25"
     inkscape:showpageshadow="2"
     inkscape:pageopacity="0.0"
     inkscape:pagecheckerboard="0"
     inkscape:deskcolor="#d1d1d1"
     showgrid="false"
     inkscape:zoom="0.99133596"
     inkscape:cx="233.52325"
     inkscape:cy="188.12997"
     inkscape:window-width="1784"
     inkscape:window-height="733"
     inkscape:window-x="0"
     inkscape:window-y="0"
     inkscape:window-maximized="0"
     inkscape:current-layer="g1" /><g
     inkscape:groupmode="layer"
     inkscape:label="Image"
     id="g1"><g
       id="g142"
       transform="translate(-3.146559,3.2203505)"><circle
         style="fill:url(#radialGradient6);stroke:none;stroke-width:15.9741"
         id="circle5"
         cx="255.42615"
         cy="257.13956"
         r="236.42813" /><circle
         style="opacity:0.3;fill:#f9fddd;fill-opacity:1;stroke:none;stroke-width:8;filter:url(#filter6)"
         id="circle6"
         cx="309.84616"
         cy="201.44055"
         r="118.40559" /><circle
         style="fill:#042944;fill-opacity:1;stroke:none;stroke-width:8"
         id="path3"
         cx="309.84616"
         cy="201.44055"
         r="118.40559" /><path
         id="circle4"
         style="fill:#f9fddd;fill-opacity:1;stroke:none;stroke-width:8"
         d="M 317.04883,319.33008 A 118.40559,118.40559 0 0 0 428.25195,201.44141 118.40559,118.40559 0 0 0 316.53711,83.242188 209.70628,209.70628 0 0 1 353.38477,201.88867 209.70628,209.70628 0 0 1 317.04883,319.33008 Z" /><path
         sodipodi:type="star"
         style="opacity:1;fill:#ffffff;fill-opacity:1;stroke:none;stroke-width:8"
         id="path9"
         inkscape:flatsided="false"
         sodipodi:sides="5"
         sodipodi:cx="137.18861"
         sodipodi:cy="355.07639"
         sodipodi:r1="11.806996"
         sodipodi:r2="5.9034982"
         sodipodi:arg1="1.3089969"
         sodipodi:arg2="1.9373155"
         inkscape:rounded="0"
         inkscape:randomized="0"
         d="m 140.24449,366.48107 -5.1715,-5.89329 -7.78656,0.91916 4.00678,-6.73952 -3.28036,-7.12142 7.64783,1.72804 5.75918,-5.32044 0.71984,7.80751 6.83973,3.83321 -7.20294,3.09726 z"
         inkscape:transform-center-x="0.41799091"
         inkscape:transform-center-y="0.72250723"
         transform="rotate(21.578484,215.06436,698.75052)" /><path
         id="path13"
         style="opacity:0.99;fill:#f9fddd;fill-opacity:1;stroke:none;stroke-width:8;filter:url(#filter13)"
         d="M 317.04883,319.33008 A 118.40559,118.40559 0 0 0 428.25195,201.44141 118.40559,118.40559 0 0 0 316.53711,83.242188 209.70628,209.70628 0 0 1 353.38477,201.88867 209.70628,209.70628 0 0 1 317.04883,319.33008 Z" /><path
         id="path5"
         style="opacity:0.99;fill:#cccccc;fill-opacity:1;stroke-width:8.70886"
         d="m 378.3125,240.02734 a 47.41077,47.41077 0 0 0 -46.99609,41.61914 43.375813,43.375813 0 0 0 -29.14844,14.69727 43.375813,43.375813 0 0 0 -28.76367,-10.92187 43.375813,43.375813 0 0 0 -43.37696,43.375 43.375813,43.375813 0 0 0 43.37696,43.375 43.375813,43.375813 0 0 0 32.7832,-14.97266 43.375813,43.375813 0 0 0 28.75,10.9375 43.375813,43.375813 0 0 0 26.50195,-9.16992 28.749086,28.749086 0 0 0 23.42969,12.19726 28.749086,28.749086 0 0 0 24.75977,-14.25781 36.314632,36.314632 0 0 0 12.05859,2.15234 36.314632,36.314632 0 0 0 36.31445,-36.31445 36.314632,36.314632 0 0 0 -32.29883,-36.08203 47.41077,47.41077 0 0 0 -47.39062,-46.63477 z" /><path
         style="fill:#ffff00;fill-opacity:1;stroke:#baba28;stroke-width:5.85668;stroke-dasharray:none;stroke-opacity:1"
         d="m 226.88539,304.50417 h -64.9865 c 0,0 -25.31943,52.3268 -21.94349,53.17077 3.37591,0.84399 18.56756,0 18.56756,0 v 43.04302 l 9.28379,-1.26598 c 0,0 3.37592,57.81267 28.69534,62.03257 -12.65971,-71.73834 16.8796,-89.46193 16.8796,-89.46193 l -17.95676,4.8115 c 0,0 12.89289,-39.41471 23.86463,-42.79063 10.97175,-3.37592 -16.22742,-4.34812 -16.22742,-4.34812 z"
         id="path9-0"
         sodipodi:nodetypes="ccsccccccscc" /><path
         d="m 145.09429,156.45011 c -32.61953,0 -59.06175,26.44222 -59.06175,59.06175 0,2.21533 0.14922,4.39707 0.3868,6.54909 -21.095627,6.87229 -36.360061,26.66948 -36.360061,50.05843 0,29.08855 23.584188,52.67275 52.672741,52.67275 11.43243,0 21.99085,-3.6826 30.62461,-9.87031 5.68975,11.15267 17.2589,18.80693 30.63795,18.80693 13.33275,0 24.87385,-7.5971 30.58461,-18.68689 5.01008,11.97216 16.82114,20.38084 30.61127,20.38084 14.09072,0 26.10472,-8.79175 30.91807,-21.18114 5.17266,6.78324 13.31265,11.17747 22.5016,11.17747 11.96328,0 22.16956,-7.42468 26.31636,-17.91327 5.17618,6.73139 13.28711,11.08407 22.43493,11.08407 12.48512,0 23.07137,-8.08357 26.83657,-19.30043 1.53756,0.22043 3.09651,0.37348 4.69506,0.37348 18.15931,0 32.87877,-14.71946 32.87877,-32.87878 0,-18.15933 -14.71945,-32.87878 -32.87877,-32.87878 -1.55216,0 -3.0668,0.15209 -4.56169,0.36011 -0.75334,-19.17544 -16.4931,-34.50604 -35.85321,-34.50604 -8.9486,0 -17.10605,3.29719 -23.39527,8.70986 -5.88797,-21.38385 -25.4295,-37.107 -48.68461,-37.107 -19.45869,0 -36.31763,11.01169 -44.76316,27.12999 -7.30956,-24.31868 -29.84096,-42.04214 -56.54082,-42.04214 z"
         style="baseline-shift:baseline;display:inline;overflow:visible;vector-effect:none;fill:#d1d1d1;fill-opacity:1;stroke:#ffffff;stroke-width:6.82919;enable-background:accumulate;stop-color:#000000"
         id="path2-4"
         sodipodi:nodetypes="sscsscscscscscssscscscss" /><path
         d="m 333.3421,414.88528 c -13.21735,12.6408 -27.56524,26.50471 -30.7384,35.32276 -3.17026,8.81909 1.4072,18.53864 10.22526,21.7118 8.81908,3.17025 18.53862,-1.40722 21.71179,-10.22526 3.17024,-8.81909 1.1447,-29.21609 -1.19865,-46.8093 z"
         style="baseline-shift:baseline;display:inline;overflow:visible;vector-effect:none;fill:#3fa9f5;fill-opacity:1;stroke-width:6.7986;enable-background:accumulate;stop-color:#000000"
         id="path1"
         sodipodi:nodetypes="ccccc" /><path
         d="m 388.14027,385.20468 c -13.21735,12.64079 -27.56523,26.5047 -30.73839,35.32276 -3.17026,8.81908 1.40721,18.53864 10.22525,21.71178 8.8191,3.17025 18.53864,-1.4072 21.71179,-10.22526 3.17026,-8.81908 1.1447,-29.21608 -1.19865,-46.80928 z"
         style="baseline-shift:baseline;display:inline;overflow:visible;vector-effect:none;fill:#3fa9f5;fill-opacity:1;stroke-width:6.7986;enable-background:accumulate;stop-color:#000000"
         id="path3-0"
         sodipodi:nodetypes="ccccc" /><path
         d="m 292.74701,376.51608 c -13.21736,12.64079 -27.56524,26.50472 -30.7384,35.32276 -3.17025,8.8191 1.40721,18.53864 10.22525,21.7118 8.8191,3.17025 18.53864,-1.40722 21.71179,-10.22526 3.17026,-8.81909 1.14471,-29.21609 -1.19864,-46.8093 z"
         style="baseline-shift:baseline;display:inline;overflow:visible;vector-effect:none;fill:#3fa9f5;fill-opacity:1;stroke-width:6.7986;enable-background:accumulate;stop-color:#000000"
         id="path4"
         sodipodi:nodetypes="ccccc" /></g></g></svg>
