<?xml version="1.0" encoding="UTF-8" standalone="no"?>
<!-- Created with Inkscape (http://www.inkscape.org/) -->

<svg
   version="1.1"
   id="svg13"
   width="512"
   height="512"
   viewBox="0 0 512 512"
   sodipodi:docname="42.svg"
   inkscape:version="1.2.2 (b0a8486541, 2022-12-01)"
   xmlns:inkscape="http://www.inkscape.org/namespaces/inkscape"
   xmlns:sodipodi="http://sodipodi.sourceforge.net/DTD/sodipodi-0.dtd"
   xmlns="http://www.w3.org/2000/svg"
   xmlns:svg="http://www.w3.org/2000/svg">
  <defs
     id="defs17" />
  <sodipodi:namedview
     id="namedview15"
     pagecolor="#ffffff"
     bordercolor="#000000"
     borderopacity="0.25"
     inkscape:showpageshadow="2"
     inkscape:pageopacity="0.0"
     inkscape:pagecheckerboard="0"
     inkscape:deskcolor="#d1d1d1"
     showgrid="false"
     inkscape:zoom="1.0490196"
     inkscape:cx="174.92523"
     inkscape:cy="322.20561"
     inkscape:window-width="1920"
     inkscape:window-height="1000"
     inkscape:window-x="0"
     inkscape:window-y="0"
     inkscape:window-maximized="1"
     inkscape:current-layer="g19" />
  <g
     inkscape:groupmode="layer"
     inkscape:label="Image"
     id="g19">
    <g
       id="g76"
       transform="matrix(9.8147354,0,0,9.8147354,-23.443859,7.8838483)">
      <path
         style="fill:#000000;fill-opacity:1;stroke-width:1.06804"
         d="m 24.154772,38.48548 c -1.786821,-1.284331 0.651688,3.29643 4.211592,4.316881 1.805339,0.517504 5.034483,-2.160125 1.895217,-2.000505 -3.147171,0.160022 -4.098771,-0.87304 -6.106809,-2.316376 z"
         id="path2240"
         sodipodi:nodetypes="ssss" />
      <path
         style="fill:#000000;fill-opacity:1;stroke-width:1.06804"
         d="m 22.470136,33.466666 c -1.786821,-1.284331 -0.05024,4.735392 7.721251,5.334684 1.872488,0.144395 8.228274,-2.616382 2.000506,-2.351471 -3.148388,0.133922 -7.713719,-1.539877 -9.721757,-2.983213 z"
         id="path2251"
         sodipodi:nodetypes="ssss" />
      <path
         style="fill:#000000;fill-opacity:1;stroke-width:1.06804"
         d="m 18.50422,27.324761 c -1.786821,-1.284329 2.042337,8.589078 14.670378,7.370286 5.773518,-0.557229 9.243235,-6.043549 1.087995,-3.404367 -5.176604,1.675239 -13.750335,-2.522582 -15.758373,-3.965919 z"
         id="path2263"
         sodipodi:nodetypes="ssss" />
      <path
         style="fill:#000000;fill-opacity:1;stroke-width:1.06804"
         d="m 13.871469,20.656409 c -1.935068,-1.047734 8.179229,11.56664 20.461316,8.388086 7.984604,-2.066383 11.729746,-7.371177 4.387075,-4.667845 -7.838184,2.885765 -12.978209,2.706812 -24.848391,-3.720241 z"
         id="path2265"
         sodipodi:nodetypes="ssss" />
      <path
         style="fill:#000000;fill-opacity:1;stroke-width:1.06804"
         d="m 10.677679,13.917862 c -1.6860399,0.22737 14.144061,14.223143 25.550322,8.668859 17.144816,-8.348674 8.792136,-7.981023 1.86012,-4.351975 C 26.81047,24.138818 11.930384,13.74893 10.677679,13.917862 Z"
         id="path2291"
         sodipodi:nodetypes="ssss" />
      <path
         style="fill:#000000;fill-opacity:1;stroke-width:1.06804"
         d="M 42.242461,9.4846306 C 43.537929,9.2949037 34.97073,4.5806957 22.342691,5.7994878 c -5.77352,0.5572295 -7.97976,5.0608452 0.175482,2.4216642 5.176603,-1.6752404 17.277449,1.6218284 19.724288,1.2634786 z"
         id="path2319"
         sodipodi:nodetypes="ssss" />
      <path
         id="path2387"
         style="fill:#000000;fill-opacity:1;stroke-width:1.24016"
         d="M 28.471869,0.40657513 A 21.163248,7.3351889 0 0 0 7.3092867,7.7409902 21.163248,7.3351889 0 0 0 28.471869,15.075404 21.163248,7.3351889 0 0 0 49.634451,7.7409902 21.163248,7.3351889 0 0 0 28.471869,0.40657513 Z m 0.05216,1.43726167 A 19.355773,5.7382939 0 0 1 47.880116,7.5824527 19.355773,5.7382939 0 0 1 28.524019,13.321068 19.355773,5.7382939 0 0 1 9.1679221,7.5824527 19.355773,5.7382939 0 0 1 28.524019,1.8438368 Z" />
      <path
         style="fill:#000000"
         d="m 29.490318,47.690057 c -5.448687,2.001129 -9.823084,1.664097 -11.796127,0 -2.436462,-2.23986 -0.365118,-4.205881 1.474516,-1.600903 2.227827,0.107696 2.132057,-0.291032 1.053225,-1.643032 -1.384577,-3.14264 1.565795,-2.647107 1.685161,-0.716194 1.004075,0.975989 1.376215,-0.02809 2.064323,-0.04213 2.331653,-3.591803 2.190759,-0.331971 1.811548,0.842581 3.016353,1.477097 2.696257,1.881763 4.044386,2.822645 1.271562,-0.127214 1.291957,-1.207699 1.937935,-1.811548 0.521295,-2.679372 1.549015,-1.694608 1.474516,-0.08426 0.761317,-0.562598 1.194946,-0.58898 1.390258,-0.168517 1.567343,-1.879746 1.496251,-0.989048 1.306,0.88471 -0.182559,0.575763 -0.841754,0.615312 -0.428519,1.488972 3.510902,-1.006912 2.404398,1.024727 1.566002,1.417931 -3.600171,2.813451 -5.710856,-0.718309 -7.583224,-1.390255 z"
         id="path400"
         sodipodi:nodetypes="ccccccccccccccc" />
    </g>
  </g>
</svg>
