<?xml version="1.0" encoding="UTF-8" standalone="no"?>
<!-- Created with Inkscape (http://www.inkscape.org/) -->

<svg
   version="1.1"
   id="svg2"
   width="512"
   height="512"
   viewBox="0 0 512 512"
   sodipodi:docname="46.svg"
   inkscape:version="1.2.2 (b0a8486541, 2022-12-01)"
   xmlns:inkscape="http://www.inkscape.org/namespaces/inkscape"
   xmlns:sodipodi="http://sodipodi.sourceforge.net/DTD/sodipodi-0.dtd"
   xmlns="http://www.w3.org/2000/svg"
   xmlns:svg="http://www.w3.org/2000/svg">
  <defs
     id="defs6" />
  <sodipodi:namedview
     id="namedview4"
     pagecolor="#ffffff"
     bordercolor="#000000"
     borderopacity="0.25"
     inkscape:showpageshadow="2"
     inkscape:pageopacity="0.0"
     inkscape:pagecheckerboard="0"
     inkscape:deskcolor="#d1d1d1"
     showgrid="false"
     inkscape:zoom="0.74176888"
     inkscape:cx="20.895997"
     inkscape:cy="26.962576"
     inkscape:window-width="1920"
     inkscape:window-height="1000"
     inkscape:window-x="0"
     inkscape:window-y="0"
     inkscape:window-maximized="1"
     inkscape:current-layer="g8" />
  <g
     inkscape:groupmode="layer"
     inkscape:label="Image"
     id="g8">
    <g
       id="g184"
       transform="matrix(9.8193225,0,0,9.8193225,-32.461646,13.04676)">
      <path
         style="fill:#ffff00;fill-opacity:1;stroke:#baba28;stroke-width:0.702725;stroke-dasharray:none;stroke-opacity:1"
         d="m 33.43759,30.019586 h -7.738017 c 0,0 -3.014811,6.326819 -2.612836,6.428864 0.401974,0.102046 2.210861,0 2.210861,0 v 5.204319 l 1.105432,-0.153068 c 0,0 0.401974,6.990115 3.416786,7.500341 C 28.31241,40.326178 31.82969,38.183224 31.82969,38.183224 l -2.138132,0.581757 c 0,0 1.53517,-4.765622 2.841588,-5.173804 1.306419,-0.408181 -1.932217,-0.52573 -1.932217,-0.52573 z"
         id="path9"
         sodipodi:nodetypes="ccsccccccscc" />
      <path
         id="path28"
         style="baseline-shift:baseline;display:inline;overflow:visible;vector-effect:none;fill:#999999;fill-opacity:1;stroke-width:0.889362;enable-background:accumulate;stop-color:#000000"
         d="M 41.843146,0.05534128 C 39.484752,0.06570651 37.343419,1.5093923 36.344297,3.7626753 35.67879,3.434906 34.953366,3.2646395 34.21888,3.2638127 c -2.395784,0.00689 -4.455331,1.7929987 -4.924829,4.2709613 -2.654726,0.1618429 -4.73271,2.472727 -4.745557,5.277436 0.01085,1.481292 0.607544,2.890541 1.646206,3.887625 1.160822,-1.837196 3.184307,-3.057937 5.493677,-3.057937 2.852049,0 5.269246,1.859899 6.159053,4.44775 0.51329,-0.54818 0.689233,1.395209 0.936786,0.670344 0.586953,0.256017 1.214522,0.392616 1.849613,0.40259 0.592993,-0.01108 1.179468,-0.132561 1.732396,-0.35883 0.946766,1.111017 2.511448,-0.852574 3.927711,-0.841884 2.781867,3.3e-4 5.037134,-2.378273 5.036875,-5.312443 C 51.329611,10.34411 49.918864,8.3027313 47.83844,7.5960373 47.90322,7.2305519 47.93782,6.8598301 47.941865,6.488039 47.941973,2.9353299 45.211443,0.0552436 41.843146,0.05534128 Z"
         sodipodi:nodetypes="ccccccsccccccccc" />
      <path
         d="m 19.41264,11.369307 c -3.971476,0 -7.190853,3.26909 -7.190853,7.301888 0,0.273884 0.01817,0.543616 0.0471,0.809673 -2.5684224,0.849631 -4.4268894,3.297186 -4.4268894,6.188795 0,3.596258 2.8714094,6.512005 6.4129804,6.512005 1.391915,0 2.677419,-0.455285 3.72859,-1.22028 0.692735,1.37882 2.101296,2.325127 3.730214,2.325127 1.623281,0 3.028427,-0.93924 3.723719,-2.310287 0.609984,1.480135 2.047997,2.519713 3.726966,2.519713 1.715566,0 3.178287,-1.086937 3.764318,-2.618654 0.62978,0.838621 1.620834,1.381885 2.739603,1.381885 1.456546,0 2.699175,-0.917923 3.204053,-2.214642 0.630207,0.832211 1.617725,1.370339 2.731485,1.370339 1.52008,0 2.808972,-0.999382 3.26739,-2.38614 0.1872,0.02725 0.377004,0.04618 0.571631,0.04618 2.210922,0 4.003036,-1.819788 4.003036,-4.06485 0,-2.245063 -1.792113,-4.06485 -4.003036,-4.06485 -0.188978,0 -0.373388,0.0188 -0.555392,0.04452 -0.09172,-2.370685 -2.00806,-4.26603 -4.365178,-4.26603 -1.089507,0 -2.082686,0.407638 -2.84841,1.076813 -0.716868,-2.643716 -3.096075,-4.587591 -5.927419,-4.587591 -2.369124,0 -4.421723,1.36139 -5.449978,3.354119 -0.88995,-3.006554 -3.633178,-5.19773 -6.883925,-5.19773 z"
         style="baseline-shift:baseline;display:inline;overflow:visible;vector-effect:none;fill:#b3b3b3;fill-opacity:1;stroke:#ffffff;stroke-width:0.837858;enable-background:accumulate;stop-color:#000000"
         id="path2"
         sodipodi:nodetypes="sscsscscscscscssscscscss" />
      <path
         d="m 35.045228,40.35236 c -1.573806,1.528394 -3.282224,3.204677 -3.660056,4.270865 -0.377486,1.066314 0.167557,2.241502 1.217532,2.625167 1.0501,0.383314 2.207417,-0.170145 2.585248,-1.236333 0.377486,-1.066314 0.136301,-3.53251 -0.142724,-5.659699 z"
         style="baseline-shift:baseline;display:inline;overflow:visible;vector-effect:none;fill:#3fa9f5;fill-opacity:1;stroke-width:0.815743;enable-background:accumulate;stop-color:#000000"
         id="path4-8"
         sodipodi:nodetypes="ccccc" />
      <path
         d="m 42.180282,39.944178 c -1.573806,1.528394 -3.282224,3.204677 -3.660056,4.270865 -0.377486,1.066314 0.167557,2.241503 1.217532,2.625167 1.0501,0.383314 2.207417,-0.170145 2.585248,-1.236333 0.377486,-1.066314 0.136301,-3.53251 -0.142724,-5.659699 z"
         style="baseline-shift:baseline;display:inline;overflow:visible;vector-effect:none;fill:#3fa9f5;fill-opacity:1;stroke-width:0.815743;enable-background:accumulate;stop-color:#000000"
         id="path1"
         sodipodi:nodetypes="ccccc" />
      <path
         d="m 46.903487,32.086677 c -1.573806,1.528394 -3.282224,3.204677 -3.660056,4.270865 -0.377486,1.066315 0.167557,2.241503 1.217532,2.625167 1.0501,0.383315 2.207417,-0.170145 2.585248,-1.236333 0.377486,-1.066313 0.136301,-3.532509 -0.142724,-5.659699 z"
         style="baseline-shift:baseline;display:inline;overflow:visible;vector-effect:none;fill:#3fa9f5;fill-opacity:1;stroke-width:0.815743;enable-background:accumulate;stop-color:#000000"
         id="path3"
         sodipodi:nodetypes="ccccc" />
      <path
         d="m 39.868927,33.719405 c -1.573806,1.528394 -3.282225,3.204677 -3.660056,4.270865 -0.377487,1.066314 0.167557,2.241503 1.217532,2.625167 1.0501,0.383315 2.207417,-0.170145 2.585248,-1.236333 0.377486,-1.066313 0.136301,-3.53251 -0.142724,-5.659699 z"
         style="baseline-shift:baseline;display:inline;overflow:visible;vector-effect:none;fill:#3fa9f5;fill-opacity:1;stroke-width:0.815743;enable-background:accumulate;stop-color:#000000"
         id="path4"
         sodipodi:nodetypes="ccccc" />
      <circle
         style="fill:#666666;fill-opacity:1;stroke-width:0.864"
         id="path404"
         cx="10.869288"
         cy="38.800831"
         r="2.2749674" />
      <circle
         style="fill:#666666;fill-opacity:1;stroke-width:0.864"
         id="circle1372"
         cx="16.346062"
         cy="43.940571"
         r="2.2749674" />
      <circle
         style="fill:#666666;fill-opacity:1;stroke-width:0.864"
         id="circle1374"
         cx="18.621029"
         cy="36.610119"
         r="2.2749674" />
    </g>
  </g>
</svg>
