<?xml version="1.0" encoding="UTF-8" standalone="no"?>
<!-- Created with Inkscape (http://www.inkscape.org/) -->

<svg
   version="1.1"
   id="svg68"
   width="512"
   height="512"
   viewBox="0 0 512 512"
   sodipodi:docname="48.svg"
   inkscape:version="1.2.2 (b0a8486541, 2022-12-01)"
   xmlns:inkscape="http://www.inkscape.org/namespaces/inkscape"
   xmlns:sodipodi="http://sodipodi.sourceforge.net/DTD/sodipodi-0.dtd"
   xmlns="http://www.w3.org/2000/svg"
   xmlns:svg="http://www.w3.org/2000/svg">
  <defs
     id="defs72" />
  <sodipodi:namedview
     id="namedview70"
     pagecolor="#ffffff"
     bordercolor="#000000"
     borderopacity="0.25"
     inkscape:showpageshadow="2"
     inkscape:pageopacity="0.0"
     inkscape:pagecheckerboard="0"
     inkscape:deskcolor="#d1d1d1"
     showgrid="false"
     inkscape:zoom="0.9509804"
     inkscape:cx="32.072165"
     inkscape:cy="329.13402"
     inkscape:window-width="1920"
     inkscape:window-height="1000"
     inkscape:window-x="0"
     inkscape:window-y="0"
     inkscape:window-maximized="1"
     inkscape:current-layer="g74"
     showguides="false"
     inkscape:lockguides="false" />
  <g
     inkscape:groupmode="layer"
     inkscape:label="Image"
     id="g74">
    <g
       id="g26"
       transform="matrix(9.7524069,0,0,9.7524069,-27.033413,13.462362)">
      <g
         id="g2151"
         transform="translate(0,-2)">
        <path
           style="fill:#5794c0;fill-opacity:1"
           d="m 3.3924723,52.561782 c -0.1239259,0 -0.2478519,0 -0.3717778,0 0,-2.432046 0,-4.864093 0,-7.296139 1.633451,1.023211 1.8391154,2.338059 3.1833474,2.579208 2.3095809,0.414329 3.5241438,-2.72637 6.6687641,-2.253902 1.061116,0.10069 3.376981,1.270241 5.065472,1.905361 0.06196,-1.022389 -0.294324,-3.206584 0.185889,-3.067167 -0.123926,-0.557667 1.703981,0.09295 2.555972,0.139417 -2.377829,-3.090403 0.309815,-3.369236 0.743556,-3.067167 1.564565,0.10069 1.618783,2.315866 2.463028,2.463028 -0.06196,-2.037033 0.712574,-3.44669 1.626528,-2.416556 2.006051,3.516399 3.477671,4.430352 4.554278,5.251362 -0.147162,-1.727218 1.77369,-2.966477 2.277139,-3.299528 1.386421,1.998305 1.777456,-0.464312 2.62568,-0.371778 1.10007,0.120007 1.266013,1.038202 1.208278,1.742709 -0.05727,0.698774 -1.820162,1.161805 -1.463875,1.510347 0.759046,0.139417 1.959579,-0.464722 2.277139,0.41825 0.449231,0.356287 0.170644,1.213395 -0.185889,1.626527 -0.314234,0.364118 -0.929445,0.247852 -1.394167,0.371778 4.1825,1.525838 5.111945,-0.759046 6.970834,-1.208278 6.413167,-2.850296 5.854507,0.245908 8.78325,0.232362 1.302038,-0.006 2.602445,-0.09295 3.903667,-0.139417 0,1.564565 0,3.12913 0,4.693695 -17.287667,0 -34.575335,0 -51.8630016,0 -0.046472,0.06196 -0.092944,0.123925 -0.1394166,0.185888"
           id="path836"
           sodipodi:nodetypes="cccacccccccccsaccaccacccc" />
        <path
           style="fill:#3fa9f5;fill-opacity:1"
           d="m 3.3460001,53.119446 c -0.1239259,0 -0.2478519,0 -0.3717778,0 0,-2.432046 0,-4.864093 0,-7.296139 1.633451,1.023211 1.8391154,2.338059 3.1833474,2.579208 2.3095809,0.414329 3.5241438,-2.72637 6.6687643,-2.253902 1.061116,0.10069 3.376981,1.270241 5.065472,1.905361 0.06196,-1.022389 -0.294324,-3.206584 0.185889,-3.067167 -0.123926,-0.557667 1.703981,0.09295 2.555972,0.139417 -2.377829,-3.090403 0.309815,-3.369236 0.743556,-3.067167 1.564565,0.10069 1.618783,2.315866 2.463028,2.463028 -0.06196,-2.037033 0.712574,-3.44669 1.626528,-2.416556 2.006051,3.516399 3.477671,4.430352 4.554278,5.251362 -0.147162,-1.727218 1.77369,-2.966477 2.277139,-3.299528 1.386421,1.998305 1.777456,-0.464312 2.62568,-0.371778 1.10007,0.120007 1.266013,1.038202 1.208278,1.742709 -0.05727,0.698774 -1.820162,1.161805 -1.463875,1.510347 0.759046,0.139417 1.959579,-0.464722 2.277139,0.41825 0.449231,0.356287 0.170644,1.213395 -0.185889,1.626527 -0.314234,0.364118 -0.929445,0.247852 -1.394167,0.371778 4.1825,1.525838 5.111945,-0.759046 6.970834,-1.208278 6.413167,-2.850296 5.854507,0.245908 8.78325,0.232362 1.302038,-0.006 2.602445,-0.09295 3.903667,-0.139417 0,1.564565 0,3.12913 0,4.693695 -17.287667,0 -34.575335,0 -51.8630018,0 -0.046472,0.06196 -0.092944,0.123925 -0.1394166,0.185888"
           id="path310"
           sodipodi:nodetypes="cccacccccccccsaccaccacccc" />
      </g>
      <path
         style="fill:#1a6da9;fill-opacity:1"
         d="m 25.039948,36.67268 c -1.672994,-1.202514 0.610173,3.086437 3.943299,4.041882 1.690333,0.484536 4.71377,-2.022518 1.774485,-1.873066 -2.946685,0.149827 -3.837665,-0.817425 -5.717784,-2.168816 z"
         id="path2240"
         sodipodi:nodetypes="ssss" />
      <path
         style="fill:#1a6da9;fill-opacity:1"
         d="m 23.462629,31.973582 c -1.672994,-1.202514 -0.04704,4.433731 7.229381,4.994846 1.753204,0.135197 7.704105,-2.449709 1.873067,-2.201674 -2.947825,0.125391 -7.222329,-1.441781 -9.102448,-2.793172 z"
         id="path2251"
         sodipodi:nodetypes="ssss" />
      <path
         style="fill:#1a6da9;fill-opacity:1"
         d="m 19.749356,26.222938 c -1.672994,-1.202514 1.912233,8.041924 13.735824,6.900773 5.405725,-0.521732 8.65441,-5.658554 1.018686,-3.187498 -4.846836,1.568522 -12.874391,-2.361884 -14.75451,-3.713275 z"
         id="path2263"
         sodipodi:nodetypes="ssss" />
      <path
         style="fill:#1a6da9;fill-opacity:1"
         d="m 15.411727,19.979382 c -1.811798,-0.980989 7.658184,10.829806 19.15786,7.853737 7.475957,-1.934748 10.982521,-6.901609 4.107603,-4.370488 -7.338865,2.701932 -12.151453,2.534379 -23.265463,-3.483249 z"
         id="path2265"
         sodipodi:nodetypes="ssss" />
      <path
         style="fill:#1a6da9;fill-opacity:1"
         d="m 12.421392,13.670104 c -1.578633,0.212885 13.243036,13.31708 23.922679,8.116623 16.052633,-7.816835 8.232047,-7.472605 1.741624,-4.07474 C 27.526469,23.23995 13.594296,13.511933 12.421392,13.670104 Z"
         id="path2291"
         sodipodi:nodetypes="ssss" />
      <path
         style="fill:#1a6da9;fill-opacity:1"
         d="M 41.975389,9.519284 C 43.188331,9.341643 35.166893,4.927746 23.343302,6.068897 c -5.405725,0.521732 -7.47142,4.738453 0.164304,2.267396 4.846836,-1.568522 16.176817,1.518513 18.467783,1.182991 z"
         id="path2319"
         sodipodi:nodetypes="ssss" />
      <path
         id="path2387"
         style="fill:#1a6da9;fill-opacity:1;stroke-width:1.16116"
         d="M 29.082031,1.0195312 A 19.815077,6.8679123 0 0 0 9.267578,7.8867188 19.815077,6.8679123 0 0 0 29.082031,14.753906 19.815077,6.8679123 0 0 0 48.896484,7.8867188 19.815077,6.8679123 0 0 0 29.082031,1.0195312 Z m 0.04883,1.3457032 A 18.122744,5.372745 0 0 1 47.253906,7.7382812 18.122744,5.372745 0 0 1 29.130859,13.111328 18.122744,5.372745 0 0 1 11.007812,7.7382812 18.122744,5.372745 0 0 1 29.130859,2.3652344 Z" />
    </g>
  </g>
</svg>
